<?xml version="1.0" encoding="utf-8"?>
<!-- Generator: Adobe Illustrator 26.3.1, SVG Export Plug-In . SVG Version: 6.00 Build 0)  -->
<svg version="1.1" id="Layer_1" xmlns="http://www.w3.org/2000/svg" xmlns:xlink="http://www.w3.org/1999/xlink" x="0px" y="0px"
	 viewBox="0 0 1320 481" style="enable-background:new 0 0 1320 481;" xml:space="preserve">
<style type="text/css">
	.st0{fill:#58A55D;}
	.st1{clip-path:url(#SVGID_00000072972977766997268590000010414593030680816518_);}
	.st2{fill:#7CC8EB;}
	.st3{fill:none;stroke:#7CC8EB;stroke-width:4.2835;stroke-miterlimit:10;}
	.st4{fill:none;stroke:#BCBEC0;stroke-width:4.2835;stroke-miterlimit:10;}
	.st5{fill:none;stroke:#BCBEC0;stroke-width:4.2835;stroke-linecap:round;stroke-miterlimit:10;}
	.st6{fill:none;stroke:#BCBEC0;stroke-width:4.2835;stroke-linecap:round;stroke-linejoin:round;stroke-miterlimit:10;}
	.st7{fill:none;stroke:#BCBEC0;stroke-width:7.1392;stroke-miterlimit:10;}
	.st8{fill:none;stroke:#BCBEC0;stroke-width:11.4227;stroke-miterlimit:10;}
	.st9{fill:none;stroke:#BCBEC0;stroke-width:11.4227;stroke-linecap:round;stroke-miterlimit:10;}
	.st10{display:none;fill:#939598;stroke:#BCBEC0;stroke-width:0.712;stroke-miterlimit:10;}
	.st11{font-family:'KohinoorDevanagari-Bold';}
	.st12{font-size:27.9276px;}
	.st13{fill:#FFCB05;}
	.st14{fill:#F37021;}
	.st15{fill:#BC3D19;}
	.st16{fill:#E31F26;}
	.st17{fill:#150958;}
	.st18{fill:#0086B4;}
	.st19{fill:#BCBEC0;}
	.st20{fill:none;stroke:#BCBEC0;stroke-width:3.9356;stroke-linecap:round;stroke-miterlimit:10;}
	.st21{fill:#E6E7E8;stroke:#BCBEC0;stroke-width:3.9356;stroke-miterlimit:10;}
	.st22{display:none;fill:#BCBEC0;}
	.st23{font-family:'MyriadPro-Regular';}
	.st24{font-size:26.9951px;}
	.st25{fill:none;stroke:#BCBEC0;stroke-width:4.309;stroke-linecap:round;stroke-miterlimit:10;}
	.st26{fill:none;stroke:#BCBEC0;stroke-width:4.309;stroke-miterlimit:10;}
	.st27{fill:none;stroke:#BCBEC0;stroke-width:4.3125;stroke-linecap:round;stroke-miterlimit:10;}
	.st28{fill:none;stroke:#BCBEC0;stroke-width:4.5216;stroke-miterlimit:10;}
</style>
<g>
	<circle id="dharohar_Office_00000150813436150983543220000013643755601061663616_" class="st0" cx="822.82" cy="118.04" r="8.5"/>
	<g>
		<defs>
			<rect id="SVGID_1_" x="0.41" y="-0.04" width="1319.45" height="481"/>
		</defs>
		<use xlink:href="#SVGID_1_"  style="overflow:visible;fill:#FFFFFF;"/>
		<clipPath id="SVGID_00000090986689976393184420000001251919816952267922_">
			<use xlink:href="#SVGID_1_"  style="overflow:visible;"/>
		</clipPath>
		<g style="clip-path:url(#SVGID_00000090986689976393184420000001251919816952267922_);">
			<path class="st2" d="M1174.15,421.66l17.95-14.05c0.87-0.68,2.05-0.81,3.05-0.33l11,5.23c1.94,0.92,4.19-0.51,4.14-2.63
				l-0.43-16.08c-0.02-0.68,0.21-1.35,0.65-1.87l7.69-9.26c1.32-1.59,3.35-2.45,5.44-2.3l24.33,1.78c1.9,0.14,3.41-1.55,3.04-3.39
				l-1.43-7.03c-0.1-0.51-0.06-1.04,0.12-1.53l1.58-4.27c0.3-0.81,0.96-1.45,1.8-1.72l9.69-3.18c0.77-0.25,1.62-0.17,2.33,0.22
				l11.33,6.31c0.61,0.34,1.33,0.45,2.01,0.31l7.47-1.55c1.44-0.3,2.42-1.62,2.28-3.06l-1.3-12.78c-0.12-1.15,0.48-2.25,1.51-2.79
				l1.3-0.68c2.2-1.16,1.97-4.34-0.38-5.18l-28.04-9.96c-0.86-0.31-1.52-1-1.79-1.86l-5.59-18.53c-0.25-0.83-0.1-1.74,0.41-2.45
				l5.18-7.23c0.62-0.86,1.67-1.32,2.73-1.18l7.35,0.94c2.05,0.26,3.7-1.62,3.15-3.58l-1.52-5.41c-0.15-0.51-0.14-1.06,0.01-1.57
				l5.69-18.86c0.29-0.98,1.1-1.72,2.1-1.96l6.92-1.6c0.85-0.2,1.75,0,2.44,0.53l3.45,2.67c0.58,0.45,0.96,1.09,1.07,1.81l1.38,8.89
				c0.13,0.82,0.61,1.54,1.31,1.98l22.79,14.14c0.49,0.3,0.87,0.74,1.1,1.26l3.27,7.32c0.4,0.9,1.24,1.53,2.22,1.67l19.3,2.77
				c0.31,0.04,0.62,0.14,0.9,0.28l30.31,15.29c1.11,0.56,2.47,0.35,3.35-0.52l1.09-1.07c0.8-0.78,1.98-1.04,3.04-0.66l7.36,2.69
				c0.87,0.32,1.53,1.03,1.78,1.91l4.32,15.4c0.21,0.75,0.1,1.55-0.31,2.22l-5.84,9.59c-0.33,0.54-0.47,1.18-0.39,1.8l8.74,71.14
				c0.05,0.37,0.02,0.75-0.09,1.11l-7.85,27.63c-0.1,0.34-0.26,0.66-0.47,0.94l-4.56,5.99c-0.58,0.77-0.74,1.77-0.4,2.68l2.06,5.58
				c0.32,0.87,0.19,1.84-0.35,2.6l-3.08,4.34c-0.85,1.19-2.47,1.56-3.76,0.85l-2.91-1.59c-1.08-0.59-2.42-0.44-3.34,0.38l-5.21,4.67
				c-1.04,0.93-1.25,2.46-0.49,3.63l6.57,10.12c0.64,0.98,0.6,2.24-0.09,3.19l-4.41,6.03c-0.83,1.13-2.36,1.5-3.63,0.88l-1.38-0.68
				c-1.11-0.55-2.45-0.33-3.33,0.53l-1.89,1.86c-0.58,0.57-0.89,1.37-0.84,2.18l0.59,9.92c0.07,1.1-0.52,2.14-1.51,2.67l-11.96,6.35
				c-0.96,0.51-1.54,1.5-1.52,2.57l0.28,11.75c0.04,1.61-1.3,2.94-2.93,2.91l-16.91-0.3c-1.12-0.02-2.13-0.67-2.58-1.68
				c-2.07-4.59-7.64-17.53-7-22.83c0.55-4.61,1.88-7.68,2.61-9.07c0.31-0.61,0.39-1.3,0.22-1.96l-1.51-5.93
				c-0.32-1.26-1.47-2.15-2.8-2.15h-9.57c-1.08,0-2.07-0.6-2.57-1.55l-6.56-12.62c-0.49-0.93-0.41-2.06,0.2-2.92l13.5-19.09
				c0.42-0.59,0.59-1.32,0.49-2.04l-0.89-5.93c-0.26-1.72-2.02-2.81-3.71-2.3l-33.98,10.38c-1,0.31-2.1,0.05-2.86-0.67l-8.69-8.26
				c-0.6-0.57-0.92-1.38-0.88-2.2l1.03-18.61c0.04-0.72-0.2-1.43-0.67-1.98l-4.15-4.85c-0.79-0.93-2.1-1.26-3.25-0.82l-7.36,2.82
				c-2.08,0.8-2.49,3.51-0.74,4.87l2.16,1.69c1.56,1.22,1.43,3.6-0.26,4.64l-1.23,0.76c-0.93,0.57-2.11,0.58-3.04,0.01l-37.67-22.84
				c-0.75-0.45-1.67-0.55-2.49-0.25l-16.07,5.73c-0.57,0.2-1.18,0.22-1.76,0.06l-7.96-2.2c-1.81-0.5-2.66-2.55-1.71-4.16l0,0
				C1173.63,422.15,1173.87,421.88,1174.15,421.66z"/>
			<path class="st2" d="M234.81,380c0,7.69-0.99,20.37-8.19,20.37c-7.19,0-14.34-11.98-14.34-19.67s4.99-12.9,12.18-12.9
				C231.66,367.8,234.81,372.31,234.81,380z"/>
			<path class="st2" d="M135.05,270.15L135.05,270.15c3.92-1.19,7.98,1.44,8.42,5.46l1.35,12.31c0.5,4.59,4.62,7.95,9.29,7.6
				l17.9-1.36c0.18-0.01,0.35-0.03,0.52-0.06c2.8-0.44,4.89-2.8,5.21-5.58l4.27-37.41c2.55-6.04,11.57-4.91,12.5,1.57l20.11,160.57
				c2.17,26.79-28.52,48.98-51.36,41.17l-2.43-0.99c-9.62-4-13.7-15.25-8.85-24.35l10.42-19.52c1.15-2.8,0.17-6.01-2.36-7.72
				l-2.15-1.46c-3.19-2.16-7.57-1.13-9.43,2.2l-5.27,19.34c-3.21,11.77-17.6,16.46-27.31,8.89l-57.13-44.02
				c-1.8-1.39-4.07-2.12-6.35-1.89c-0.8,0.08-1.56,0.27-2.18,0.59c-2.33,1.19-4.07,3.19-5.21,5.52c-1.57,3.22-6.7,4.11-11.81,2.01
				c-8.52-3.5-13.78-7.94-13.78-7.94c-0.01-0.01-0.03-0.01-0.04-0.02c-24.06-24.14-7.61-59.36-6.77-61.27
				c0.38-0.87,5.1-6.55,5.1-6.55c2.01-2.13,6.17-4.04,9.88-3.84c14.92,0.82,25.46,14.81,22.49,29.24l-4.27,20.77
				c-0.4,1.95,0.05,4.03,1.38,5.52c0.35,0.39,0.75,0.74,1.19,1.04l6.71,4.54c1.8,1.22,4.1,1.47,6.13,0.67l0.62-0.24
				c2.35-0.93,3.9-3.17,3.9-5.67v-0.21c0-7.85,3.84-15.2,10.31-19.75c8.97-6.31,21.8-15.34,30.17-21.23
				c5.4-3.8,9.03-9.58,10.07-16.03l4.07-25.25C121.63,278.96,127.33,272.5,135.05,270.15z"/>
			<path class="st2" d="M158.84,178.01c-3.72,1.83-10.46,2.12-11.88,2.02l-43.27-1.56c-0.06,0-0.13,0-0.19,0l-16.22,0.38
				c-0.09,0-0.17,0-0.25,0c-1.61-0.06-7.67,0.4-8.77-0.37l-50.37-26.99c-3.14-1.68-5.29-7.43-3.41-14.02
				c4.51-15.81,21.75-45.43,24.71-47.9l8.3-7.39c0.69-0.58,1.48-1.03,2.33-1.33L93.05,68.1c0.18-0.07,0.36-0.15,0.53-0.25
				c1.96-1.13,4.24-2.95,4.5-5.72l1.84-11.38c0.22-2.29,1.49-4.34,3.43-5.58c0.51-0.32,0.93-0.76,1.22-1.28l0.5-0.88
				c0.32-0.57,0.8-1.04,1.37-1.37c2.96-1.7,4.14-3.88,2.7-7.21l-2.99-7.8c-2.83-6.56,1.04-12.22,7.14-8.83
				c0.21,0.12,0.41,0.26,0.59,0.42l35.28,30.36c0.13,0.11,0.26,0.21,0.4,0.3c1.37,0.88,2.41,2.18,2.97,3.7l20.79,46.93
				c0.56,1.53,0.6,3.2,0.11,4.75l-5.72,18.2c-1.94,6.16,1.86,12.64,8.24,14.08h0c5.76,1.29,9.52,6.75,8.61,12.5l-1.79,11.36
				c-0.54,3.46-2.72,6.46-3.4,6.92L158.84,178.01z"/>
			<path class="st3" d="M228.12,185.35l18.66-49.36c2.74-6.74,9.37-11.16,16.74-11.16h106.39"/>
			<path class="st4" d="M239.67,45.65v73.38c0,3.71,1.5,7.27,4.16,9.89l32.45,31.97c2.66,2.62,4.16,6.18,4.16,9.89v57.66"/>
			<path class="st4" d="M130.98,207.43l-24.91-24.54c-1.46-1.44-3.31-2.23-5.22-2.23H79.87c-1.11,0-2.22-0.27-3.24-0.79
				l-52.61-26.93c-3.33-1.7-5.3-5.8-4.84-10.05l0.34-3.09c0.35-3.22-0.7-6.43-2.79-8.54l0,0c-3.94-3.97-3.78-11.22,0.33-14.94
				L56.57,80.5c0.77-0.7,1.64-1.23,2.57-1.57L91.4,67.25c2.72-0.98,4.8-3.57,5.51-6.82l2.47-11.45c0.51-2.38,1.78-4.44,3.54-5.75
				l1.52-1.14c2.05-1.54,3.42-4.07,3.72-6.92l-7.23-16.44c-0.3-0.67-0.39-1.45-0.23-2.19c1.27-5.84,6.86-8.95,11.53-6.18
				c0.19,0.11,0.36,0.25,0.52,0.41l32.96,32.85c1.16,0.75,2.46,1.16,3.78,1.19l464.71,0.12L764.06,99.4
				c7.64,2.32,14.08,7.46,17.97,14.34l31.07,54.9c2.51,4.43,3.86,9.41,3.93,14.48l0.28,19.91"/>
			<path class="st5" d="M1025.88,156.38l10.36,39.51c1.14,4.34,3.13,8.43,5.87,12.02l36.19,47.49c4.53,5.94,6.98,13.17,6.98,20.6
				v34.13v66.55"/>
			<polyline class="st5" points="1176.67,140.43 1152.97,230.56 1113.42,377.63 			"/>
			<line class="st5" x1="1121.76" y1="158.13" x2="1233.39" y2="113.81"/>
			<path class="st4" d="M192.51,191.94l1.16-43.41c0.5-2.68-1.04-5.33-3.64-6.26l-18.3-8.08c-2.63-0.95-4.17-3.64-3.62-6.35
				l3.68-16.89c0.53-2.61,2.86-4.49,5.56-4.49h36.5c3.32,0,6.02,2.65,6.02,5.93v6.5c0,3.27,2.69,5.93,6.02,5.93h7.76
				c3.32,0,6.02-2.65,6.02-5.93v-9.37c0-3.27,2.69-5.93,6.02-5.93l41.03,0.18c1.11,0,2,0.89,2,1.98v3.71v34.86
				c0,2.23-0.55,4.42-1.6,6.39l-7.07,15.92"/>
			<path class="st3" d="M291.69-4.45l119.35,197.42c1.38,2.29,3.61,3.96,6.21,4.67l151.83,41.35c1.39,0.38,2.69,1.04,3.81,1.94
				l61.41,49.11c1.87,1.49,4.2,2.31,6.61,2.31h24.97c2.65,0,5.19,0.99,7.13,2.76l116.25,106.35c1.94,1.77,4.49,2.76,7.13,2.76h95.73
				c1.36,0,2.7-0.26,3.95-0.76l18.35-7.36c4.14-1.66,8.9-0.55,11.84,2.76l13.69,15.41c1.99,2.24,4.87,3.53,7.89,3.53h35.78
				c3.32,0,6.44,1.55,8.41,4.17l13.9,18.43c1.98,2.62,5.1,4.17,8.41,4.17h30.83c5.79,0,10.48-4.62,10.48-10.33v0
				c0-5.7,4.69-10.33,10.48-10.33h125.3"/>
			<path class="st5" d="M451.91,483.79l182.11-34.8c2.07-0.4,3.97-1.39,5.46-2.86l10.64-10.48c2.66-2.62,6.26-4.09,10.02-4.09h37.89
				c5.85,0,10.59,4.67,10.59,10.43v21.53c0,4.63,3.1,8.71,7.61,10.01l50.62,14.63"/>
			<path class="st4" d="M815.76,257.15h57.81c5.31,0,10.47,1.72,14.69,4.9l46.29,34.87"/>
			<path class="st4" d="M556.96,216.61l256.19,154.59c6.53,3.95,14.04,6.04,21.69,6.04h316.85c5.53,0,10.02,4.42,10.02,9.88v33.35
				c0,3.18,2.66,5.74,5.89,5.65c18.15-0.56,73.64,2.5,100.83,57.47"/>
			<line class="st4" x1="816.15" y1="327.27" x2="933.77" y2="327.27"/>
			<line class="st4" x1="816.15" y1="277.42" x2="892.88" y2="277.42"/>
			<polyline class="st4" points="933.77,173.01 933.77,216.61 933.77,302.28 933.77,375.71 			"/>
			<path class="st4" d="M879.03,178.75V51.29c0-5.57-2.25-10.91-6.24-14.85L835.98,0.17c-4-3.94-6.24-9.28-6.24-14.85V-38.1"/>
			<path class="st2" d="M205.86,198.61l1.39,6.28c1.43,6.45-2.43,11.12-9.15,14.22c-0.58,0.27-1.23,0.36-1.81,0.63
				c-0.8,0.37-1.79,1.58-2.03,1.89l-18.23,23.52c-0.06,0.08-0.13,0.21-0.22,0.39c-1.85,3.88,0.71,8.41,5.01,9.04l8.56,1.24
				c1.51,0.22,3-0.54,3.68-1.89l13.71-27.02c0.54-1.06,1.58-1.78,2.78-1.91l10.81-1.18c4.75-0.52,8.43-4.35,8.7-9.05l1.62-28.41
				c0.12-2.17-1.78-3.93-3.98-3.66l-10.35,1.27C209.18,184.87,204.32,191.64,205.86,198.61z"/>
			<path class="st4" d="M818.09,200.93l-309.89,89.79c-3.7,1.07-7.54,1.62-11.4,1.62H324.3"/>
			<path class="st4" d="M286.84,380.11l26.07-13.46c6.52-3.37,10.61-10.02,10.61-17.28V240.7c0-6.75-5.61-12.18-12.46-12.07
				l-90.67,1.52c-6.11,0.1-11,5.01-11,11.02v12.84c0,3.01-2.48,5.45-5.53,5.45H-66.62"/>
			<path class="st4" d="M183.29,258.87l40.43,31.7c2.01,1.85,3.15,4.44,3.15,7.16v20.91c0,5.75,4.73,10.41,10.57,10.41h29.35
				c4.33,0,7.84-3.46,7.84-7.72v-3.16c0-3.45,2.83-6.25,6.34-6.25l42.24-0.08"/>
			<path class="st6" d="M302.56,482.46v-72.63c0-2.55-0.71-5.05-2.05-7.24l-19.19-31.19c-1.34-2.18-2.05-4.68-2.05-7.24v-14.01
				c0-6.58-5.42-11.92-12.1-11.92h-17.84c-8.95,0-16.34,5.99-16.2,15.96v0c-0.08,6.4,0.25,25.9,0.44,36.15
				c0.08,4.28-0.53,8.55-1.8,12.64l-11.89,38.23c0,5.13-2.86,9.84-7.44,12.28l-50.79,27.02L27.72,424.28l-38.04-43.22H-50.7v41.31"
				/>
			<path class="st4" d="M311.88,192.13v14.98c0,5.24,4.31,9.49,9.64,9.49h142.63l167.2-47.89c6.28-1.52,10.7-7.07,10.7-13.45v-38.48
				"/>
			<path class="st7" d="M-67.78,244.15H74.91c2.64,0,5.22-0.75,7.44-2.17l75.9-48.44c2.22-1.41,4.8-2.17,7.44-2.17h148.03
				c6.7,0,12.14-5.35,12.14-11.95V156.9c0-6.31-5.19-11.43-11.6-11.43h-10.64c-7.56,0-13.68-6.03-13.68-13.48V44.82"/>
			<path class="st4" d="M543.9,193.65l114.64-90c12.8-9.96,16.08-15.48,17.08-21.6l1.36-13.9"/>
			<path class="st8" d="M661.82,485.79l58.68-35.3c1.64-0.89,3.11-2.04,4.35-3.42l88.36-98.16c2.64-2.93,4.1-6.71,4.1-10.63V208.33
				c0-5.76,3.14-11.07,8.21-13.92l25.31-14.2c2.45-1.38,5.23-2.1,8.05-2.1h57.05c1.79,0,3.56-0.29,5.25-0.86l61.28-20.59
				c1.69-0.57,3.46-0.86,5.25-0.86h131.31"/>
			<path class="st4" d="M497.24,206.79l-40.42-39.89c-4.48-4.42-7-10.4-7-16.65V51.84V25.82c0-5.71,2.1-11.22,5.92-15.51
				l75.67-85.13"/>
			<path class="st4" d="M464.54,216.61l89.23-0.1c2.92,0,5.82-0.54,8.54-1.59l33.62-13c4.25-1.64,7.92-4.48,10.56-8.16l16.92-23.62"
				/>
			<path class="st4" d="M299.07,401.34l57.91-23.15c4.05-1.53,6.72-5.36,6.72-9.63v-52.13"/>
			<path class="st4" d="M340.41,292.34l43.63,42.8c1.2,1.18,29.41,26.08,41.21,36.48c3.35,2.95,7.43,4.98,11.84,5.87l203.19,40.97"
				/>
			<path class="st5" d="M373.99,326.5v42.38c0,4.62,3.8,8.36,8.49,8.36h14.65c1.93,0,3.8-0.69,5.25-1.95l13.2-12.07"/>
			<line class="st4" x1="302.56" y1="443.22" x2="452.21" y2="443.22"/>
			<line class="st4" x1="435.71" y1="484.71" x2="498.99" y2="326.76"/>
			<path class="st4" d="M386.86,337.47h41.37c6.45,0,12.22-3.93,14.5-9.87l4.25-11.07l8.29-21.58c0.66-1.73,1-3.56,1-5.41v-72.93"/>
			<line class="st4" x1="447.62" y1="317.96" x2="657.76" y2="361.18"/>
			<path class="st4" d="M521.17,469.83l68.17-153.55c2.28-4.5,2.4-9.77,0.34-14.38l-14.02-31.36"/>
			<path class="st5" d="M523.92,44.83l21.93-2.84c2.23-0.75,4.17-2.15,5.56-4.02l48.74-71.11"/>
			<path class="st4" d="M709.91,79.75L557.62-60.55c-1.17-1.09-2.49-2.02-3.92-2.76l-69.38-35.6c-7.19-3.69-16.02-1.95-21.21,4.18
				l-70.63,83.4c-0.43,0.5-0.82,1.03-1.19,1.58l-24.59,37.01c-1.84,2.77-2.82,6-2.82,9.31v8.25"/>
			<path class="st4" d="M600.89,199.4h144.02c5.25,0,9.51,4.2,9.51,9.37v10.71"/>
			<path class="st4" d="M872.44,326.76l0.58-24.72c0.12-5.2,2.51-10.09,6.55-13.43L900,271.69"/>
			<path class="st4" d="M629.23,450.16l33.39-101.39c1.78-5.42,4.85-10.35,8.94-14.38l31.04-30.59"/>
			<polyline class="st9" points="1140.35,260.46 1119.63,158.1 993.85,-4.83 			"/>
			<path class="st8" d="M1119.63,156.18l40.42-42.52c3.47-3.65,7.95-5.67,12.6-5.67l60.42,2.33c0,0.43,105.43-117.65,105.43-117.65"
				/>
			<path class="st4" d="M1146.03,376.48v-45.51c0-5.15,3.49-9.68,8.53-11.06l27.89-7.64c4.97-1.36,8.44-5.78,8.53-10.86l0.37-20.38
				c0.07-3.96-1.94-7.68-5.32-9.84l-11.31-7.21c-0.98-0.7-1.7-1.8-2.04-3.08l-6.98-26.43c-0.61-2.31-2.43-3.89-4.48-3.89h-7.61"/>
			<path class="st4" d="M1169.71,168.04h9.65c1.54,0,3.04,0.64,4.22,1.81l21.01,20.7c1.76,1.73,2.77,4.3,2.77,7v55.89
				c0,5.71-4.71,10.33-10.51,10.31l-22.49-0.09"/>
			<text transform="matrix(0.8469 0 0 1 1104.584 38.938)" class="st10 st11 st12">Udaipur</text>
			<polyline class="st4" points="153.49,44.89 614.3,44.82 651.16,26.91 			"/>
		</g>
	</g>
	
		<circle id="wall_tika_x2C__Swaroop_Sagar_00000065772723704423077160000015493452075005979801_" class="st0" cx="243.51" cy="197.24" r="8.5"/>
	
		<circle id="udan_vatika_x2C__Swaroop_Sagar_00000152256334532071529250000009602854860029915538_" class="st0" cx="264.11" cy="210.45" r="8.5"/>
	<circle id="gulab_gardan_00000025400659076867993580000013307269105709288860_" class="st0" cx="301" cy="337.87" r="8.5"/>
	
		<circle id="nyay_vatika_udaipur_00000054255916906521550250000005034707532511286667_" class="st0" cx="822.39" cy="112.49" r="8.5"/>
	<circle id="Johed_beed_00000116922279683099972430000010001658567698870678_" class="st0" cx="748.74" cy="37.43" r="8.5"/>
	<circle id="Jungle_00000049218369607107902940000010963644853879849354_" class="st0" cx="717.12" cy="28.43" r="8.5"/>
	<circle id="third_space_00000121996448897281518180000009445967318844216962_" class="st13" cx="510.36" cy="11.44" r="8.5"/>
	<circle id="TSM" class="st14" cx="485.62" cy="235.05" r="8.5"/>
	<circle id="Surajpole" class="st15" cx="310.23" cy="287.43" r="8.5"/>
	<circle id="Hathipole" class="st15" cx="299.67" cy="238.3" r="8.5"/>
	<circle id="Udaipole" class="st15" cx="350.42" cy="319.64" r="8.5"/>
	<circle id="Brahmpole" class="st15" cx="139.71" cy="256.91" r="8.5"/>
	<circle id="Chand_Pole" class="st15" cx="214.89" cy="264.62" r="8.5"/>
	<circle id="Delhi_Gate" class="st15" cx="238.45" cy="215.02" r="8.5"/>
	<circle id="dharohar_Office" class="st16" cx="757.88" cy="246.58" r="8.5"/>
	<circle id="old_city_00000127731071625240932050000011357644147139281308_" class="st17" cx="244.67" cy="251.85" r="8.5"/>
	<circle id="Lake_Pichola_00000122684598766400831820000012748178764548051111_" class="st18" cx="165.01" cy="335.06" r="8.5"/>
	<circle id="Fateh_Sagar_Lake_00000018215377562255859380000014267358717175297963_" class="st18" cx="84.69" cy="108.52" r="8.5"/>
	<circle class="st19" cx="455.52" cy="289.51" r="6.99"/>
	<circle class="st19" cx="576.25" cy="343.28" r="6.99"/>
	<circle class="st19" cx="816.91" cy="195.84" r="18.13"/>
	<circle class="st19" cx="1116.9" cy="149.1" r="18.13"/>
	<circle class="st19" cx="551.26" cy="399.57" r="6.99"/>
	<circle class="st19" cx="475.05" cy="383.69" r="6.99"/>
	<line class="st20" x1="252.4" y1="328.31" x2="252.4" y2="335.37"/>
	<line class="st21" x1="148.15" y1="37.89" x2="179.35" y2="101.03"/>
	<text transform="matrix(1 0 0 1 1113.3445 475.6591)" class="st22 st23 st24">Udaipur</text>
	<path class="st25" d="M399.72,375.96v87.34c0,6.72,5.45,12.17,12.17,12.17h27.21"/>
	<polygon class="st19" points="1133.18,255.21 1137.43,276.76 1144.22,254.69 1139.58,250.76 	"/>
	<line class="st26" x1="1078.56" y1="252.83" x2="1128.53" y2="212.35"/>
</g>
<line class="st27" x1="1232.75" y1="103.04" x2="1328.86" y2="282.07"/>
<line class="st27" x1="1282.25" y1="50.96" x2="1378.36" y2="230"/>
<line class="st27" x1="1313.11" y1="22.25" x2="1409.21" y2="201.29"/>
<line class="st27" x1="1311.18" y1="-10.11" x2="1310.86" y2="17.86"/>
<line class="st27" x1="1280.64" y1="-7.21" x2="1282.57" y2="51.29"/>
<line class="st28" x1="1221.93" y1="437.88" x2="1221.93" y2="482.64"/>
</svg>
