<?xml version="1.0" encoding="utf-8"?>
<!-- Generator: Adobe Illustrator 26.3.1, SVG Export Plug-In . SVG Version: 6.00 Build 0)  -->
<svg version="1.1" id="Layer_1" xmlns="http://www.w3.org/2000/svg" xmlns:xlink="http://www.w3.org/1999/xlink" x="0px" y="0px"
	 viewBox="0 0 69.63 113.23" style="enable-background:new 0 0 69.63 113.23;" xml:space="preserve">
<style type="text/css">
	.st0{fill:#939598;}
	.st1{fill:#BCBEC0;}
	.st2{fill:#58595B;}
	.st3{fill:none;stroke:#58595B;stroke-miterlimit:10;}
	.st4{fill:#FFCB05;}
	.st5{fill:#FFFFFF;}
	.st6{fill:none;stroke:#58595B;stroke-width:1.4;stroke-miterlimit:10;}
	.st7{fill:#E31F26;}
	.st8{fill:#FFFFFF;stroke:#BBBDBF;stroke-width:1.0296;stroke-miterlimit:10;}
	.st9{fill:#BBBDBF;}
	.st10{fill:#FFFFFF;stroke:#BBBDBF;stroke-width:2.2652;stroke-linecap:round;stroke-linejoin:round;stroke-miterlimit:10;}
	.st11{fill:#FFFFFF;stroke:#BCBEC0;stroke-width:2.2652;stroke-linecap:round;stroke-linejoin:round;stroke-miterlimit:10;}
	.st12{fill:#F37021;}
	.st13{fill:#D1D3D4;}
	.st14{fill:#FFFFFF;stroke:#D1D3D4;stroke-width:1.7422;stroke-miterlimit:10;}
	.st15{fill:none;}
	.st16{fill:none;stroke:#58595B;stroke-width:0.0865;stroke-linecap:round;stroke-linejoin:round;stroke-miterlimit:10;}
	.st17{fill:none;stroke:#58595B;stroke-width:0.3701;stroke-miterlimit:10;}
	.st18{fill:#E41F28;}
	.st19{fill:#E6E7E8;}
	.st20{fill:#A7A9AC;}
	.st21{fill:#FFFFFF;stroke:#58595B;stroke-width:0.0945;stroke-linecap:round;stroke-linejoin:round;stroke-miterlimit:10;}
	.st22{fill:#C51A20;}
	.st23{fill:#B34215;}
	.st24{fill:#E45620;}
	.st25{fill:#C6401B;}
	.st26{fill:#960C10;}
	.st27{fill:#414042;}
	.st28{fill:none;stroke:#58595B;stroke-width:0.3617;stroke-miterlimit:10;}
	.st29{fill:#FFFFFF;stroke:#58595B;stroke-width:0.0452;stroke-miterlimit:10;}
	.st30{fill:#378C3B;}
	.st31{fill:#00ABE1;}
	.st32{fill:#150958;}
	.st33{fill:#BC3D19;}
	.st34{fill:none;stroke:#58595B;stroke-width:0.4122;stroke-miterlimit:10;}
	.st35{fill:none;stroke:#C2952D;stroke-width:0.1333;stroke-miterlimit:10;}
	.st36{fill:#2E6733;}
	.st37{fill:#C2952D;}
	.st38{fill:#B34526;}
	.st39{fill:none;stroke:#C2952D;stroke-width:0.1521;stroke-miterlimit:10;}
	.st40{fill:none;stroke:#58595B;stroke-width:0.1297;stroke-linecap:round;stroke-linejoin:round;stroke-miterlimit:10;}
	.st41{fill:none;stroke:#58595B;stroke-width:0.5546;stroke-miterlimit:10;}
	.st42{fill:#FFFFFF;stroke:#58595B;stroke-width:0.1415;stroke-linecap:round;stroke-linejoin:round;stroke-miterlimit:10;}
	.st43{fill:none;stroke:#58595B;stroke-width:0.5421;stroke-miterlimit:10;}
	.st44{fill:#FFFFFF;stroke:#58595B;stroke-width:0.0678;stroke-miterlimit:10;}
	.st45{fill:none;stroke:#58595B;stroke-width:0.4665;stroke-miterlimit:10;}
	.st46{fill:none;stroke:#C2952D;stroke-width:0.1508;stroke-miterlimit:10;}
	.st47{fill:none;stroke:#C2952D;stroke-width:0.1722;stroke-miterlimit:10;}
	.st48{fill:none;stroke:#BCBEC0;stroke-miterlimit:10;}
	.st49{fill:none;stroke:#58595B;stroke-width:1.3338;stroke-miterlimit:10;}
	.st50{fill:none;stroke:#58595B;stroke-width:1.3338;stroke-linejoin:round;stroke-miterlimit:10;}
	.st51{fill:none;stroke:#58595B;stroke-width:1.5665;stroke-miterlimit:10;}
	.st52{fill:#FFFFFF;stroke:#58595B;stroke-width:0.8701;stroke-miterlimit:10;}
	.st53{fill:#FFFFFF;stroke:#58595B;stroke-width:1.5455;stroke-linecap:round;stroke-miterlimit:10;}
	.st54{fill:none;stroke:#C6401B;stroke-width:0.54;stroke-miterlimit:10;}
	.st55{clip-path:url(#SVGID_00000165221824521640867690000006098670875605404345_);}
	.st56{fill:none;stroke:#C6401B;stroke-width:1.1204;stroke-miterlimit:10;}
	.st57{fill:none;stroke:#C6401B;stroke-width:0.9165;stroke-miterlimit:10;}
	.st58{fill:#4A9549;}
	.st59{clip-path:url(#SVGID_00000132068126153945428410000007138337584728633734_);}
	.st60{fill:none;stroke:#58595B;stroke-width:1.4;stroke-linejoin:round;stroke-miterlimit:10;}
	.st61{fill:none;stroke:#58595B;stroke-width:1.0174;stroke-linecap:round;stroke-linejoin:bevel;stroke-miterlimit:10;}
	.st62{fill:none;stroke:#58595B;stroke-width:1.0174;stroke-miterlimit:10;}
	.st63{fill:none;stroke:#58595B;stroke-width:1.1836;stroke-miterlimit:10;}
	.st64{fill:none;stroke:#58595B;stroke-width:1.3856;stroke-miterlimit:10;}
	.st65{fill:none;stroke:#58595B;stroke-width:0.919;stroke-miterlimit:10;}
	.st66{fill:none;stroke:#58595B;stroke-width:0.919;stroke-linejoin:round;stroke-miterlimit:10;}
	.st67{fill:#808285;}
</style>
<g>
	<line class="st6" x1="26.86" y1="31.73" x2="41.57" y2="67.28"/>
	<path class="st6" d="M29.98,39.42c0,0,10.14-6.51,14.9-12.03c0.28-0.32,0.42-0.74,0.41-1.16L45.14,8.56"/>
	<path class="st6" d="M30.03,39.31c-3.67,2.92-10.76,12.65-12.85,15.57c-0.28,0.4-0.88,0.37-1.13-0.05L7.29,40.49"/>
	<path class="st6" d="M41.43,66.94c0,0-6.59,4.37-13.01,17.65c-0.7,1.45-1.28,2.97-1.73,4.52l-6.99,23.92"/>
	<path class="st6" d="M41.45,66.93c0,0,15.26-7.78,22.66-6.59c2.25,0.36-5.02,22.74-5.02,22.74"/>
	<path class="st2" d="M47.66,4.31c-0.45-2.48-2.18-4.59-3.87-4.28c-1.69,0.31-2.69,2.94-2.24,5.42c0.45,2.48,2.18,4.23,3.87,3.92
		C47.1,9.05,48.11,6.79,47.66,4.31z"/>
	<path class="st2" d="M66.45,82.56c-2.9-2.03-6.5-1.9-8.04,0.29l9.52,6.66c0.57,0.4,1.29,0.31,1.46-0.2
		C70.15,87.16,68.98,84.33,66.45,82.56z"/>
	<circle class="st7" cx="23.02" cy="24.04" r="13.34"/>
	<path class="st2" d="M6.26,35.86c-1.89-1.66-4.63-2.26-5.76-0.97s-0.21,3.99,1.68,5.65c1.89,1.66,4.34,1.97,5.47,0.67
		S8.15,37.52,6.26,35.86z"/>
	<path class="st2" d="M14.62,107.6c3.52,0.45,6.09,2.97,5.75,5.63l-11.52-1.48c-0.69-0.09-1.16-0.64-0.95-1.13
		C8.78,108.51,11.55,107.21,14.62,107.6z"/>
</g>
</svg>
