<?xml version="1.0" encoding="utf-8"?>
<!-- Generator: Adobe Illustrator 26.3.1, SVG Export Plug-In . SVG Version: 6.00 Build 0)  -->
<svg version="1.1" id="Layer_1" xmlns="http://www.w3.org/2000/svg" xmlns:xlink="http://www.w3.org/1999/xlink" x="0px" y="0px"
	 viewBox="0 0 120 120" style="enable-background:new 0 0 120 120;" xml:space="preserve">
<style type="text/css">
	.st0{fill:#939598;}
	.st1{fill:#BCBEC0;}
	.st2{fill:#58595B;}
	.st3{fill:none;stroke:#58595B;stroke-miterlimit:10;}
	.st4{fill:#FFCB05;}
	.st5{fill:#FFFFFF;}
	.st6{fill:none;stroke:#58595B;stroke-width:1.4;stroke-miterlimit:10;}
	.st7{fill:#E31F26;}
	.st8{fill:#FFFFFF;stroke:#BBBDBF;stroke-width:1.0296;stroke-miterlimit:10;}
	.st9{fill:#BBBDBF;}
	.st10{fill:#FFFFFF;stroke:#BBBDBF;stroke-width:2.2652;stroke-linecap:round;stroke-linejoin:round;stroke-miterlimit:10;}
	.st11{fill:#FFFFFF;stroke:#BCBEC0;stroke-width:2.2652;stroke-linecap:round;stroke-linejoin:round;stroke-miterlimit:10;}
	.st12{fill:#F37021;}
	.st13{fill:#D1D3D4;}
	.st14{fill:#FFFFFF;stroke:#D1D3D4;stroke-width:1.7422;stroke-miterlimit:10;}
	.st15{fill:none;}
	.st16{fill:none;stroke:#58595B;stroke-width:0.0865;stroke-linecap:round;stroke-linejoin:round;stroke-miterlimit:10;}
	.st17{fill:none;stroke:#58595B;stroke-width:0.3701;stroke-miterlimit:10;}
	.st18{fill:#E41F28;}
	.st19{fill:#E6E7E8;}
	.st20{fill:#A7A9AC;}
	.st21{fill:#FFFFFF;stroke:#58595B;stroke-width:0.0945;stroke-linecap:round;stroke-linejoin:round;stroke-miterlimit:10;}
	.st22{fill:#C51A20;}
	.st23{fill:#B34215;}
	.st24{fill:#E45620;}
	.st25{fill:#C6401B;}
	.st26{fill:#960C10;}
	.st27{fill:#414042;}
	.st28{fill:none;stroke:#58595B;stroke-width:0.3617;stroke-miterlimit:10;}
	.st29{fill:#FFFFFF;stroke:#58595B;stroke-width:0.0452;stroke-miterlimit:10;}
	.st30{fill:#378C3B;}
	.st31{fill:#00ABE1;}
	.st32{fill:#150958;}
	.st33{fill:#BC3D19;}
	.st34{fill:none;stroke:#58595B;stroke-width:0.4122;stroke-miterlimit:10;}
	.st35{fill:none;stroke:#C2952D;stroke-width:0.1333;stroke-miterlimit:10;}
	.st36{fill:#2E6733;}
	.st37{fill:#C2952D;}
	.st38{fill:#B34526;}
	.st39{fill:none;stroke:#C2952D;stroke-width:0.1521;stroke-miterlimit:10;}
	.st40{fill:none;stroke:#58595B;stroke-width:0.1297;stroke-linecap:round;stroke-linejoin:round;stroke-miterlimit:10;}
	.st41{fill:none;stroke:#58595B;stroke-width:0.5546;stroke-miterlimit:10;}
	.st42{fill:#FFFFFF;stroke:#58595B;stroke-width:0.1415;stroke-linecap:round;stroke-linejoin:round;stroke-miterlimit:10;}
	.st43{fill:none;stroke:#58595B;stroke-width:0.5421;stroke-miterlimit:10;}
	.st44{fill:#FFFFFF;stroke:#58595B;stroke-width:0.0678;stroke-miterlimit:10;}
	.st45{fill:none;stroke:#58595B;stroke-width:0.4665;stroke-miterlimit:10;}
	.st46{fill:none;stroke:#C2952D;stroke-width:0.1508;stroke-miterlimit:10;}
	.st47{fill:none;stroke:#C2952D;stroke-width:0.1722;stroke-miterlimit:10;}
	.st48{fill:none;stroke:#BCBEC0;stroke-miterlimit:10;}
	.st49{fill:none;stroke:#58595B;stroke-width:1.3338;stroke-miterlimit:10;}
	.st50{fill:none;stroke:#58595B;stroke-width:1.3338;stroke-linejoin:round;stroke-miterlimit:10;}
	.st51{fill:none;stroke:#58595B;stroke-width:1.5665;stroke-miterlimit:10;}
	.st52{fill:#FFFFFF;stroke:#58595B;stroke-width:0.8701;stroke-miterlimit:10;}
	.st53{fill:#FFFFFF;stroke:#58595B;stroke-width:1.5455;stroke-linecap:round;stroke-miterlimit:10;}
	.st54{fill:none;stroke:#C6401B;stroke-width:0.54;stroke-miterlimit:10;}
	.st55{clip-path:url(#SVGID_00000121993628095420511810000014749485253277989311_);}
	.st56{fill:none;stroke:#C6401B;stroke-width:1.1204;stroke-miterlimit:10;}
	.st57{fill:none;stroke:#C6401B;stroke-width:0.9165;stroke-miterlimit:10;}
	.st58{fill:#4A9549;}
	.st59{clip-path:url(#SVGID_00000039812043332244569850000005433667570736428165_);}
	.st60{fill:none;stroke:#58595B;stroke-width:1.4;stroke-linejoin:round;stroke-miterlimit:10;}
	.st61{fill:none;stroke:#58595B;stroke-width:1.0174;stroke-linecap:round;stroke-linejoin:bevel;stroke-miterlimit:10;}
	.st62{fill:none;stroke:#58595B;stroke-width:1.0174;stroke-miterlimit:10;}
	.st63{fill:none;stroke:#58595B;stroke-width:1.1836;stroke-miterlimit:10;}
	.st64{fill:none;stroke:#58595B;stroke-width:1.3856;stroke-miterlimit:10;}
	.st65{fill:none;stroke:#58595B;stroke-width:0.919;stroke-miterlimit:10;}
	.st66{fill:none;stroke:#58595B;stroke-width:0.919;stroke-linejoin:round;stroke-miterlimit:10;}
	.st67{fill:#808285;}
</style>
<g>
	<g>
		<g>
			<g>
				<rect x="5.04" y="4.98" class="st14" width="33.2" height="32.03"/>
				<g>
					<g>
						
							<ellipse transform="matrix(0.7654 -0.6435 0.6435 0.7654 -14.7518 23.5799)" class="st2" cx="24.97" cy="32.02" rx="0.96" ry="0.58"/>
					</g>
					<g>
						
							<ellipse transform="matrix(0.9376 -0.3477 0.3477 0.9376 -9.4433 8.3206)" class="st2" cx="18.46" cy="30.47" rx="0.96" ry="0.58"/>
					</g>
					<rect x="2.92" y="11.77" class="st15" width="36.22" height="25.24"/>
					<line class="st16" x1="11.45" y1="28.8" x2="33.89" y2="28.8"/>
					<path class="st17" d="M25.61,22.08c0.21,1.99-0.11,5.91-0.18,6.71"/>
					<path class="st17" d="M18.9,30.23c0,0,3.88-1.27,4.38-1.53c0.5-0.26,0.91-4.72,2.35-4.92c1.08-0.15,2.08,4.15,2.08,4.95
						c0,0.61-2.36,2.93-2.36,2.93"/>
					<circle class="st18" cx="25.5" cy="19.86" r="3.22"/>
					<g>
						<path class="st19" d="M22.19,32.62h-4.1l3.61-2.32c0.01-0.01,0.03-0.01,0.04-0.01l4.05,0.04L22.19,32.62z"/>
						<g>
							<g>
								<path class="st20" d="M19.26,32.19c0.07,0.13,0.23,0.16,0.37,0.13c0.12-0.02,0.22-0.07,0.34-0.07
									c0.13,0,0.26,0.04,0.39,0.04c0.26,0.01,0.53-0.03,0.8-0.05c0.27-0.02,0.58-0.08,0.83,0.06c0.02,0.01,0.05-0.02,0.02-0.04
									c-0.19-0.1-0.39-0.1-0.59-0.08c-0.25,0.02-0.5,0.04-0.75,0.06c-0.12,0.01-0.24,0.02-0.36,0.01
									c-0.11-0.01-0.23-0.04-0.34-0.04c-0.21,0-0.54,0.21-0.67-0.04C19.29,32.15,19.25,32.17,19.26,32.19L19.26,32.19z"/>
							</g>
						</g>
						<g>
							<g>
								<path class="st20" d="M20.02,31.79c0.13,0.11,0.29,0.11,0.45,0.08c0.13-0.03,0.25-0.08,0.38-0.11
									c0.15-0.03,0.28,0.01,0.43,0.03c0.25,0.03,0.5-0.02,0.76-0.02c0.28,0,0.56,0.06,0.82,0.17c0.03,0.01,0.04-0.03,0.01-0.04
									c-0.21-0.08-0.43-0.14-0.65-0.16c-0.25-0.02-0.5,0.02-0.75,0.02c-0.22,0-0.43-0.08-0.65-0.03
									c-0.24,0.06-0.53,0.22-0.76,0.03C20.03,31.74,20,31.77,20.02,31.79L20.02,31.79z"/>
							</g>
						</g>
						<g>
							<g>
								<path class="st20" d="M20.83,31.3c0.19,0.09,0.38,0.09,0.58,0.07c0.13-0.02,0.26-0.05,0.39-0.02
									c0.1,0.02,0.19,0.07,0.29,0.09c0.22,0.04,0.46,0,0.68,0c0.26,0,0.51,0.01,0.77,0.03c0.03,0,0.03-0.04,0-0.04
									c-0.24-0.02-0.48-0.03-0.72-0.03c-0.22,0-0.44,0.03-0.66,0.01c-0.11-0.01-0.2-0.05-0.3-0.09c-0.1-0.03-0.19-0.03-0.3-0.02
									c-0.24,0.03-0.47,0.07-0.7-0.04C20.83,31.25,20.81,31.29,20.83,31.3L20.83,31.3z"/>
							</g>
						</g>
						<g>
							<g>
								<path class="st20" d="M21.45,30.92c0.16,0.1,0.34,0.15,0.53,0.14c0.09,0,0.17-0.02,0.26-0.04c0.14-0.02,0.26,0,0.39,0.05
									c0.19,0.06,0.37,0.07,0.56,0.06c0.23-0.02,0.45-0.04,0.67,0.05c0.03,0.01,0.04-0.03,0.01-0.04
									c-0.39-0.16-0.81,0.04-1.2-0.09c-0.08-0.02-0.15-0.06-0.23-0.07c-0.11-0.02-0.21,0.01-0.31,0.03
									c-0.24,0.04-0.46,0.01-0.67-0.11C21.45,30.87,21.43,30.9,21.45,30.92L21.45,30.92z"/>
							</g>
						</g>
						<g>
							<g>
								<path class="st20" d="M21.97,30.64c0.19,0.05,0.39,0.07,0.58,0.06c0.24-0.01,0.47-0.09,0.7-0.05
									c0.19,0.04,0.35,0.07,0.55,0.06c0.22-0.01,0.44-0.03,0.64,0.06c0.03,0.01,0.04-0.03,0.01-0.04
									c-0.18-0.07-0.36-0.07-0.55-0.06c-0.1,0-0.2,0.01-0.3,0c-0.12-0.01-0.23-0.04-0.34-0.06c-0.21-0.04-0.4,0.01-0.6,0.04
									c-0.23,0.02-0.46,0.01-0.69-0.05C21.95,30.59,21.94,30.63,21.97,30.64L21.97,30.64z"/>
							</g>
						</g>
					</g>
					<g>
						<path class="st19" d="M8.48,22.68h10.85c0.39,0,0.7,0.32,0.7,0.7v6.86c0,0.39-0.32,0.7-0.7,0.7H8.48c-0.39,0-0.7-0.32-0.7-0.7
							v-6.86C7.78,22.99,8.09,22.68,8.48,22.68z"/>
						<path class="st13" d="M19.33,22.68H8.48c-0.3,0-0.93,0.33-0.96,0.88c0.04-0.11,0.18-0.52,0.68-0.53c0.55-0.01,10.85,0,10.85,0
							c0.39,0,0.7,0.32,0.7,0.7v6.86c0,0.36-0.28,0.66-0.63,0.7c0.64-0.01,0.89-0.45,0.91-1.05v-6.86
							C20.03,22.99,19.72,22.68,19.33,22.68z"/>
						<g>
							<path class="st19" d="M14.46,32.42l-3.12-0.05c-0.05,0-0.2,0.01-0.16-0.02l0.96-0.62c0.01-0.01,0.15-0.08,0.16-0.08
								l2.92-0.02c0.05,0,0.38,0,0.34,0.02l-1.08,0.76C14.48,32.42,14.47,32.42,14.46,32.42z"/>
							<path class="st13" d="M11.18,32.49v-0.12l3.23,0.01l1.16-0.73v0.16c0,0.05-0.03,0.1-0.07,0.13l-0.91,0.59
								c-0.09,0.06-0.19,0.08-0.29,0.08H11.3C11.23,32.62,11.18,32.56,11.18,32.49z"/>
						</g>
						<polygon class="st13" points="13.97,31.84 13.72,32.05 13.7,30.98 13.97,30.95 						"/>
						<path class="st19" d="M8.21,23.03h10.85c0.39,0,0.7,0.32,0.7,0.7v6.86c0,0.39-0.32,0.7-0.7,0.7H8.21c-0.39,0-0.7-0.32-0.7-0.7
							v-6.86C7.5,23.34,7.82,23.03,8.21,23.03z"/>
						<rect x="13.1" y="30.51" class="st13" width="0.63" height="1.55"/>
					</g>
					<g>
						<polygon class="st22" points="25.77,27.73 26,27.63 27.04,28.88 27.92,29.98 27.96,30.22 27.91,30.41 27.58,30.23 						"/>
						<polygon class="st13" points="26.02,27.35 29.23,26.91 29.46,27.01 29.23,27.4 27.91,27.45 26.3,27.35 						"/>
						<path class="st23" d="M26.34,32.05l0.5-0.04c0,0,0.49-0.51,0.76-0.62c0.27-0.11,0.63-0.19,0.86-0.18
							c0.24,0.02-0.05-0.15-0.05-0.15l-0.31-0.28l-0.24-0.06h-0.24l-0.73,0.66l-0.44,0.34L26.34,32.05z"/>
						<path class="st23" d="M30.14,31.21c0.06,0.11,0.6,0.29,0.97,0.34s0.89,0.56,0.94,0.67c0.11-0.06,0.14-0.14,0.14-0.14
							l0.29-0.29l-0.44-0.47c0,0-0.65-0.49-0.68-0.53c-0.03-0.04-0.65-0.25-0.67-0.26s-0.92,0.2-0.92,0.2s-0.06,0.37-0.05,0.38
							S30.14,31.21,30.14,31.21z"/>
						<polygon class="st24" points="27.96,30.71 30.35,28.72 30.51,29 27.96,31.07 27.78,30.86 						"/>
						<polygon class="st25" points="30.35,28.72 33.38,28.09 33.47,28.32 30.51,29 						"/>
						<polygon class="st23" points="29.81,32.75 29.65,32.95 30.33,32.74 30.33,32.62 						"/>
						<polygon class="st23" points="32.2,32 32.05,32.22 32.72,31.99 32.72,31.87 						"/>
						<polygon class="st24" points="28.1,30.96 29.65,32.95 29.81,32.78 28.31,30.79 						"/>
						<path class="st25" d="M30.33,32.62l-0.34-0.49c0,0-0.22-0.27-0.12-0.42c0.2-0.22,0.35-0.52,0.27-0.79c0,0,0.28,0.25,0.44,0.26
							c0.16,0.02,0.69,0.09,0.84,0.14c0.28,0.1,0.66,0.53,0.79,0.75c0.09-0.02,0.53-0.21,0.53-0.21l-1.42-1.73
							c-1.2,0.26-2.53,0.54-2.99,0.65l1.5,1.99L30.33,32.62z"/>
						<polygon class="st23" points="31.3,30.14 33.47,28.32 30.51,29 28.31,30.79 						"/>
						<polygon class="st24" points="25.77,27.92 27.78,30.47 27.59,30.63 25.64,28.09 						"/>
						<path class="st19" d="M29.46,27.01l-3.16,0.35l0.49,0.89l1.04,1.03l0.47,0.71l1.5-1.3l0.56-0.62
							C30.36,28.07,29.71,27.55,29.46,27.01z"/>
						<polygon class="st24" points="26.18,31.83 27.78,30.47 27.96,30.71 26.34,32.05 						"/>
						<path class="st13" d="M25.98,27.77l0.04-0.41h0.28c0,0,0.78,0.98,1.02,1.13c0.23,0.14,1.17,0.82,0.89,1.36
							c0,0,0.6-0.69,0.82-0.85c0.22-0.16,1.12-0.63,1.31-0.95c0.26-0.05,2.91-0.51,2.91-0.51l0.14,0.37l-2.89,0.52l-2.3,1.98
							L28,30.02l-0.15,0.2L25.98,27.77z"/>
						<path class="st19" d="M28.01,30.04c-0.45-0.91-1.22-1.77-1.99-2.69c0,0,0.6,0.7,1.16,1.45c0.42,0.57,0.61,0.88,0.8,1.24
							L28.01,30.04z"/>
						<path class="st19" d="M28.01,30.04c0,0,0.04-0.01,0.12-0.09c0.22-0.21,0.75-0.79,0.95-0.93c0.26-0.19,1.29-0.8,1.29-0.93
							c0.1,0.11-0.92,0.69-1.26,0.95c-0.22,0.17-1.08,1.05-1.08,1.05L28.01,30.04z"/>
						<path class="st19" d="M28.01,30.04c0.04-0.02,0.01,0.01,0.04-0.02c0.23-0.24,0.13-0.77-0.2-1.07
							c-0.37-0.33-0.58-0.43-0.95-0.84c-0.39-0.43-0.65-0.76-0.65-0.76s0.13,0.13,0.25,0.3c0.12,0.18,0.32,0.46,0.57,0.67
							c0.71,0.59,0.81,0.69,0.97,0.95C28.27,29.64,28.01,30.04,28.01,30.04z"/>
						<path class="st26" d="M25.77,27.73l2,2.57c0.01,0.01,0.02,0.01,0.02,0l0.2-0.26c0.01-0.01,0.02-0.01,0.02,0l0.19,0.36
							c0,0.01,0.02,0.01,0.02,0l2.28-1.97c0,0,0,0,0.01,0l2.86-0.52c0.01,0,0.02,0.01,0.02,0.02l-0.01,0.15
							c0,0.01-0.01,0.01-0.01,0.01l-3.02,0.63c0,0,0,0-0.01,0l-2.37,1.98c-0.01,0.01-0.02,0-0.02,0l-2.18-2.77c0,0,0-0.01,0-0.01
							V27.73z"/>
						<path class="st27" d="M28.16,30.51L28,30.18c-0.01-0.02-0.04-0.02-0.05,0l-0.16,0.27c-0.01,0.01-0.01,0.02,0,0.03l0.15,0.21
							c0.01,0.01,0.03,0.01,0.04,0l0.17-0.16C28.17,30.53,28.17,30.52,28.16,30.51z"/>
						<polygon class="st19" points="30.35,28.04 30.51,28.43 33.39,27.91 33.25,27.54 						"/>
					</g>
					<polygon class="st1" points="13.72,30.51 13.97,31.03 13.97,31.84 13.72,32.05 					"/>
				</g>
			</g>
			<g>
				<rect x="81.79" y="4.98" class="st14" width="33.2" height="32.03"/>
				<g>
					
						<ellipse transform="matrix(0.9984 -0.0565 0.0565 0.9984 -0.8271 5.9431)" class="st2" cx="104.61" cy="17.59" rx="0.93" ry="0.51"/>
					
						<ellipse transform="matrix(0.3321 -0.9432 0.9432 0.3321 44.2858 98.6855)" class="st2" cx="91.83" cy="18.07" rx="0.57" ry="0.94"/>
					<polyline class="st28" points="98.36,15.63 98.36,23.21 97.62,28.11 97.25,32.69 					"/>
					<polyline class="st28" points="98.36,23.21 99.13,28 99.42,32.78 					"/>
					<path class="st28" d="M98.36,16.61l1.78,3.21c0.02,0.05,0.09,0.07,0.13,0.02l2.48-1.81"/>
					<path class="st28" d="M98.36,16.61l-2.79,1.85c-0.08,0.05-0.17,0.08-0.27,0.07l-3.05-0.12"/>
					<g>
						<path class="st29" d="M103.45,17.08c-1.98,0.35-2.07,1.71,0.17,1.83c2.24,0.13,2.86-0.8,1.59-1.02
							c-0.47-0.09-0.8-0.22-0.6-0.3s1.29-0.28,0.72-0.47C104.76,16.93,104.11,16.97,103.45,17.08z"/>
						<path class="st4" d="M103.75,17.41c0.01,0.07-0.25,0.04-0.43,0.11c-0.15,0.06-0.44-0.01-0.44-0.08
							c-0.01-0.07,0.23-0.17,0.43-0.14C103.52,17.33,103.74,17.34,103.75,17.41z"/>
						<path class="st12" d="M103.03,17.92c0,0.06-0.31,0.14-0.43,0.09c-0.14-0.05-0.44,0-0.44-0.06c-0.01-0.07,0.23-0.09,0.43-0.14
							C102.78,17.77,103.03,17.85,103.03,17.92z"/>
						<path class="st30" d="M103.22,18.44c0,0.06-0.31,0.15-0.43,0.11c-0.14-0.05-0.44-0.02-0.44-0.08
							c-0.01-0.07,0.19-0.14,0.43-0.14C102.95,18.33,103.21,18.37,103.22,18.44z"/>
						<path class="st31" d="M104.3,18.62c-0.29,0.02-0.1,0.09-0.33,0.11c-0.24,0.02-0.39-0.02-0.44-0.08
							c-0.12-0.13,0.21-0.08,0.43-0.14C104.1,18.48,104.54,18.6,104.3,18.62z"/>
						<path class="st32" d="M105.39,18.51c-0.08,0.08-0.1,0.11-0.33,0.11c-0.15,0.01-0.42-0.02-0.44-0.08
							c-0.03-0.07,0.21-0.08,0.43-0.14C105.18,18.37,105.45,18.44,105.39,18.51z"/>
					</g>
					<g>
						<path class="st30" d="M91.56,15.91c0.07,0.28,0.09,0.51,0.03,0.53c-0.06,0.01-0.16-0.2-0.24-0.47
							c-0.06-0.21-0.05-0.41-0.04-0.49c0-0.02,0.02-0.02,0.03-0.01C91.4,15.53,91.51,15.7,91.56,15.91z"/>
						<g>
							<path class="st33" d="M92.52,19.47c0.17,0.64-0.03,0.7-0.2,0.05l-0.76-2.67l0.27-0.07L92.52,19.47z"/>
							<polygon class="st1" points="91.58,15.98 91.38,16.03 91.56,16.85 91.84,16.78 							"/>
						</g>
					</g>
					<ellipse transform="matrix(0.5 -0.866 0.866 0.5 30.5637 88.8454)" class="st2" cx="92.22" cy="17.95" rx="0.16" ry="0.34"/>
					<path class="st2" d="M104.1,17.64c-0.05-0.08-0.06-0.16,0.07-0.25c0.13-0.09,0.31-0.13,0.36-0.06s-0.02,0.23-0.15,0.32
						C104.25,17.74,104.16,17.72,104.1,17.64z"/>
					<circle class="st12" cx="98.38" cy="12.59" r="3.39"/>
					<ellipse class="st2" cx="104.18" cy="17.61" rx="0.25" ry="0.19"/>
					<path class="st2" d="M95.86,31.62c0.84-0.04,1.55,0.45,1.57,1.09l-2.76,0.12c-0.17,0.01-0.3-0.1-0.27-0.23
						C94.53,32.07,95.13,31.65,95.86,31.62z"/>
					<path class="st2" d="M100.81,31.7c-0.84-0.04-1.55,0.45-1.57,1.09l2.76,0.12c0.17,0.01,0.3-0.1,0.27-0.23
						C102.14,32.15,101.55,31.73,100.81,31.7z"/>
				</g>
			</g>
			<g>
				<rect x="43.43" y="4.98" class="st14" width="33.2" height="32.03"/>
				<g>
					<g>
						
							<ellipse transform="matrix(0.4355 -0.9002 0.9002 0.4355 11.1114 70.1433)" class="st2" cx="61.48" cy="26.21" rx="0.64" ry="1.06"/>
					</g>
					<g>
						
							<ellipse transform="matrix(0.18 -0.9837 0.9837 0.18 28.5555 81.5473)" class="st2" cx="63.19" cy="23.65" rx="0.64" ry="1.06"/>
					</g>
					<g>
						<g>
							<g>
								<path class="st34" d="M58.3,17.19c0,0-4.27,2.91-5.17,8.08c-0.03,0.2,0.05,0.38,0.18,0.54c2.62,3.07,2.92,4.06,3.87,5.52
									c0.2,0.31-0.13,0.69-0.47,0.53l-6.02-2.97"/>
								<path class="st34" d="M53.16,25.57c2.05,1.06,4.58,3.57,5.95,5.03c0.25,0.26-0.04,0.68-0.38,0.55l-5.5-2.2"/>
								<path class="st2" d="M53.03,28.81c0-0.07,0.08-0.13,0.16-0.11c0.49,0.13,1.09,0.85,1.09,1.71c0,0.83-0.55,1.52-1.03,1.69
									c-0.1,0.04-0.21-0.03-0.21-0.13V28.81z"/>
								<path class="st2" d="M50.5,28.76c0-0.07,0.08-0.13,0.16-0.11c0.49,0.13,1.09,0.85,1.09,1.71c0,0.83-0.55,1.52-1.03,1.69
									c-0.1,0.04-0.21-0.03-0.21-0.13V28.76z"/>
								<path class="st34" d="M62.26,23.47c0,0-2.49-0.79-3.16-1.07c-0.1-0.04-0.18-0.11-0.24-0.19l-2.31-3.41
									c-0.01-0.01-0.03,0-0.02,0.01c0.07,0.38,0.77,3.86,0.97,4.86c0.04,0.17,0.14,0.32,0.29,0.41l2.9,1.7"/>
								<circle class="st4" cx="59.77" cy="15.79" r="3.51"/>
							</g>
						</g>
						<g>
							<g>
								<path class="st36" d="M66.18,26.75c0.16-0.08,0.32-0.12,0.47-0.13c-0.01,0.15-0.04,0.31-0.12,0.47
									c-0.21,0.46-0.62,0.72-0.92,0.59C65.47,27.38,65.73,26.97,66.18,26.75z"/>
								<g>
									<path class="st37" d="M64.86,28.37c0.01,0.01,1.19-1.17,1.2-1.13c0,0-1.11,1.21-1.11,1.21L64.86,28.37L64.86,28.37z"/>
								</g>
							</g>
							<g>
								<path class="st36" d="M66.26,29c0.23-0.11,0.46-0.17,0.68-0.18c-0.01,0.22-0.06,0.45-0.17,0.68
									c-0.3,0.66-0.89,1.04-1.34,0.85C65.25,29.92,65.61,29.31,66.26,29z"/>
								<g>
									<path class="st37" d="M64.86,30.85l1.19-1.14c0.06,0-1.11,1.22-1.1,1.23C64.94,30.93,64.86,30.85,64.86,30.85L64.86,30.85z
										"/>
								</g>
							</g>
							<g>
								<path class="st36" d="M63.14,26.26c-0.08-0.17-0.12-0.34-0.13-0.5c0.16,0.01,0.33,0.05,0.5,0.12
									c0.48,0.22,0.76,0.66,0.63,0.98C63.81,27,63.37,26.74,63.14,26.26z"/>
								<g>
									<path class="st37" d="M64.78,27.58l-1.26-1.34c0-0.04,1.34,1.26,1.35,1.25C64.87,27.5,64.78,27.58,64.78,27.58L64.78,27.58
										z"/>
								</g>
							</g>
							<g>
								<path class="st36" d="M62.87,28.72c-0.11-0.23-0.17-0.46-0.18-0.68c0.22,0.01,0.45,0.06,0.69,0.17
									c0.66,0.3,1.04,0.9,0.86,1.34C63.79,29.74,63.18,29.37,62.87,28.72z"/>
								<g>
									<path class="st37" d="M64.73,30.14l-1.17-1.21c0-0.07,1.24,1.14,1.25,1.13C64.82,30.05,64.73,30.14,64.73,30.14
										L64.73,30.14z"/>
								</g>
							</g>
							<g>
								<path class="st36" d="M64.68,24.68c0.05-0.14,0.12-0.26,0.21-0.36c0.09,0.09,0.16,0.22,0.22,0.36
									c0.15,0.4,0.06,0.81-0.2,0.92C64.64,25.49,64.54,25.08,64.68,24.68z"/>
								<g>
									<path class="st37" d="M64.84,26.31c0.01,0,0.02-1.27,0.06-1.24c0,0,0.06,1.24,0.06,1.24L64.84,26.31L64.84,26.31z"/>
								</g>
							</g>
							<g>
								<polygon class="st38" points="64.96,26.31 65.11,32.48 64.69,32.48 64.84,26.31 64.96,26.31 								"/>
							</g>
							<path class="st39" d="M69.56,32.57c-2.11,0.47-2.55-0.03-2.77-0.37c-0.1-0.15-0.22-0.5-0.38-0.49
								c-0.12,0.01-0.17,0.2-0.27,0.36c-0.41,0.59-1.75,0.67-2.16,0.16c-0.19-0.24-0.14-0.56-0.27-0.58
								c-0.13-0.02-0.17,0.29-0.41,0.49c-0.39,0.32-0.88,0.05-1.78,0.14c-0.24,0.02-0.58,0.08-0.99,0.22"/>
						</g>
					</g>
				</g>
			</g>
		</g>
		<path class="st2" d="M43.74,89.02c1.06,1.71,2.12,1.02,3.28,0.29c1.16-0.73,1.99-1.22,0.93-2.93s-2.87-2.5-4.03-1.77
			C42.76,85.33,42.68,87.31,43.74,89.02z"/>
		<g>
			<g>
				<g>
					<rect x="1.57" y="103.87" class="st1" width="26.8" height="16.15"/>
					<path class="st13" d="M28.83,105.4H1.12c-0.3,0-0.54-0.24-0.54-0.54V97.9c0-0.3,0.24-0.54,0.54-0.54h27.7
						c0.3,0,0.54,0.24,0.54,0.54v6.96C29.37,105.16,29.13,105.4,28.83,105.4z"/>
				</g>
				<g>
					<path class="st6" d="M27.18,66.71c-13.82,9.64-16.45,30.16-16.45,30.16l18.95-1.43c0.86-0.07,1.61,0.59,1.64,1.46l0.84,18.19"
						/>
					<path class="st6" d="M10.57,96.66l21.31-3.98c1.05-0.2,2.05,0.54,2.17,1.6l2.12,17.92"/>
					<path class="st6" d="M21.75,71.5c-0.58,5.87,4.04,18.06,6.19,23.34c0.34,0.84,1.54,0.76,1.78-0.11l4.52-16.33"/>
					<path class="st6" d="M21.88,71.66l8.6,18.78c0.17,0.37,0.63,0.51,0.98,0.3l12.6-5.37"/>
					<circle class="st4" cx="29.72" cy="57.63" r="13.58"/>
					<g>
						<path class="st0" d="M33.24,72.43c-0.15,0.01-0.15,0.01-0.21-0.12c-0.34-0.66-0.68-1.32-1-1.99c-0.2-0.41-0.35-0.83-0.49-1.26
							c-0.09-0.28-0.04-0.54,0.09-0.79c0.09-0.17,0.19-0.19,0.32-0.05c0.18,0.2,0.35,0.41,0.5,0.62c0.55,0.79,1.02,1.61,1.49,2.45
							c0.07,0.13,0.14,0.26,0.22,0.38c0.05,0.08,0.03,0.14-0.01,0.21c-0.09,0.15-0.22,0.26-0.36,0.35
							C33.61,72.34,33.44,72.41,33.24,72.43z"/>
						<path class="st0" d="M33.28,72.61c0.42-0.04,0.77-0.19,0.96-0.6c0.08,0.15,0.16,0.3,0.24,0.45c0.51,0.96,0.99,1.94,1.42,2.95
							c0.15,0.35,0.28,0.71,0.42,1.07c0.06,0.17,0.02,0.24-0.15,0.31c-0.05,0.02-0.09-0.01-0.12-0.04c-0.2-0.25-0.41-0.48-0.59-0.74
							c-0.79-1.06-1.49-2.17-2.13-3.32C33.31,72.66,33.3,72.64,33.28,72.61z"/>
						<path class="st0" d="M31.42,69.07c0.04,0.14,0.08,0.28,0.11,0.42c0.01,0.03-0.01,0.06-0.03,0.09c-0.06,0.13-0.06,0.26,0,0.38
							c0.34,0.69,0.68,1.38,1.02,2.07c0.06,0.12,0.15,0.2,0.26,0.26c0.02,0.01,0.03,0.02,0.05,0.03c0.04,0.03,0.07,0.07,0.1,0.11
							c-0.05,0.02-0.09,0.05-0.14,0.06c-0.07,0.02-0.14-0.01-0.19-0.07c-0.08-0.11-0.17-0.21-0.23-0.33
							c-0.36-0.72-0.71-1.44-1.06-2.17c-0.11-0.23-0.12-0.47-0.03-0.72c0.02-0.05,0.05-0.1,0.08-0.14
							C31.39,69.07,31.4,69.07,31.42,69.07z"/>
						<path class="st0" d="M36.41,77.02c-0.06-0.04-0.11-0.08-0.17-0.13c0.06-0.03,0.1-0.06,0.16-0.09
							c0.01,0.08,0.02,0.14,0.03,0.21C36.42,77.02,36.41,77.02,36.41,77.02z"/>
					</g>
					<path class="st2" d="M38.46,76.69c1.13-2.02-0.28-2.52-1.66-3.28s-2.22-1.49-3.35,0.53c-1.13,2.02-0.92,4.28,0.46,5.04
						C35.3,79.74,37.34,78.71,38.46,76.69z"/>
				</g>
			</g>
			<path class="st2" d="M42.02,108.32c-3.46-0.21-6.39,1.56-6.54,3.96l11.35,0.7c0.68,0.04,1.23-0.36,1.12-0.83
				C47.47,110.13,45.04,108.5,42.02,108.32z"/>
			<path class="st2" d="M38.97,113.63c-3.18-1.39-6.54-0.72-7.5,1.49l10.43,4.54c0.63,0.27,1.28,0.08,1.33-0.4
				C43.47,117.21,41.74,114.84,38.97,113.63z"/>
		</g>
		<g>
			<polygon class="st4" points="39.61,94.32 39.79,88.48 48.88,83.09 52.87,87.08 			"/>
			<g>
				<g>
					<path class="st5" d="M47.86,84.61c0.06,0.15,0.12,0.3,0.22,0.43c0.11,0.14,0.29,0.2,0.39,0.35c0.14,0.22,0.15,0.54,0.39,0.68
						c0.15,0.08,0.38,0.03,0.49,0.15c0.06,0.07,0.08,0.17,0.11,0.25c0.02,0.07,0.06,0.14,0.1,0.21c0.17,0.29,0.48,0.48,0.6,0.8
						c0.03,0.09,0.18,0.05,0.14-0.04c-0.12-0.31-0.38-0.5-0.57-0.76c-0.1-0.14-0.13-0.3-0.2-0.45c-0.07-0.14-0.18-0.2-0.33-0.23
						c-0.19-0.03-0.32-0.05-0.41-0.23c-0.06-0.13-0.1-0.27-0.16-0.4c-0.07-0.13-0.17-0.21-0.28-0.29c-0.18-0.13-0.27-0.31-0.35-0.51
						C47.97,84.48,47.82,84.52,47.86,84.61L47.86,84.61z"/>
				</g>
			</g>
			<g>
				<g>
					<path class="st5" d="M46.74,85.39c0.16,0.31,0.3,0.64,0.41,0.97c0.04,0.13,0.08,0.26,0.16,0.37c0.1,0.12,0.2,0.22,0.27,0.35
						c0.14,0.26,0.2,0.55,0.29,0.83c0.09,0.29,0.23,0.57,0.4,0.83c0.05,0.08,0.18,0,0.13-0.08c-0.18-0.27-0.31-0.56-0.41-0.87
						c-0.08-0.27-0.15-0.54-0.28-0.79c-0.06-0.11-0.13-0.21-0.22-0.3c-0.13-0.14-0.17-0.29-0.23-0.47
						c-0.11-0.32-0.24-0.62-0.39-0.92C46.82,85.23,46.7,85.31,46.74,85.39L46.74,85.39z"/>
				</g>
			</g>
			<g>
				<g>
					<path class="st5" d="M45.54,86.29c0.13,0.06,0.13,0.21,0.14,0.33c0,0.13,0.01,0.25,0.07,0.36c0.03,0.06,0.08,0.1,0.1,0.16
						c0.03,0.07,0.03,0.15,0.03,0.23c-0.01,0.14-0.01,0.24,0.04,0.36c0.02,0.04,0.03,0.08,0.05,0.11c0.02,0.03,0.06,0.05,0.08,0.09
						c0.05,0.08,0.05,0.18,0.06,0.27c0.01,0.16,0.02,0.35,0.14,0.46c0.07,0.07,0.18-0.04,0.11-0.11c-0.12-0.11-0.09-0.36-0.11-0.51
						c-0.01-0.08-0.03-0.16-0.08-0.22c-0.08-0.1-0.14-0.19-0.14-0.32c0-0.13,0.03-0.26-0.02-0.39c-0.05-0.14-0.16-0.23-0.17-0.39
						c-0.02-0.21,0.01-0.46-0.21-0.57C45.53,86.12,45.46,86.25,45.54,86.29L45.54,86.29z"/>
				</g>
			</g>
			<g>
				<g>
					<path class="st5" d="M46.45,89.18c0.1,0,0.1-0.15,0-0.15C46.35,89.03,46.35,89.18,46.45,89.18L46.45,89.18z"/>
				</g>
			</g>
			<g>
				<g>
					<path class="st5" d="M46.61,89.61c0.1,0,0.1-0.15,0-0.15C46.52,89.46,46.51,89.61,46.61,89.61L46.61,89.61z"/>
				</g>
			</g>
		</g>
		<path class="st2" d="M43.78,86.8c0.4,0.45,1.05-0.19,0.65-0.63c-0.4-0.45-0.01-1.33-0.79-0.62C42.86,86.25,43.38,86.35,43.78,86.8
			z"/>
	</g>
</g>
</svg>
