<?xml version="1.0" encoding="utf-8"?>
<!-- Generator: Adobe Illustrator 26.3.1, SVG Export Plug-In . SVG Version: 6.00 Build 0)  -->
<svg version="1.1" id="Layer_1" xmlns="http://www.w3.org/2000/svg" xmlns:xlink="http://www.w3.org/1999/xlink" x="0px" y="0px"
	 viewBox="0 0 98.02 100.85" style="enable-background:new 0 0 98.02 100.85;" xml:space="preserve">
<style type="text/css">
	.st0{fill:#939598;}
	.st1{fill:#BCBEC0;}
	.st2{fill:#58595B;}
	.st3{fill:none;stroke:#58595B;stroke-miterlimit:10;}
	.st4{fill:#FFCB05;}
	.st5{fill:#FFFFFF;}
	.st6{fill:none;stroke:#58595B;stroke-width:1.4;stroke-miterlimit:10;}
	.st7{fill:#E31F26;}
	.st8{fill:#FFFFFF;stroke:#BBBDBF;stroke-width:1.0296;stroke-miterlimit:10;}
	.st9{fill:#BBBDBF;}
	.st10{fill:#FFFFFF;stroke:#BBBDBF;stroke-width:2.2652;stroke-linecap:round;stroke-linejoin:round;stroke-miterlimit:10;}
	.st11{fill:#FFFFFF;stroke:#BCBEC0;stroke-width:2.2652;stroke-linecap:round;stroke-linejoin:round;stroke-miterlimit:10;}
	.st12{fill:#F37021;}
	.st13{fill:#D1D3D4;}
	.st14{fill:#FFFFFF;stroke:#D1D3D4;stroke-width:1.7422;stroke-miterlimit:10;}
	.st15{fill:none;}
	.st16{fill:none;stroke:#58595B;stroke-width:0.0865;stroke-linecap:round;stroke-linejoin:round;stroke-miterlimit:10;}
	.st17{fill:none;stroke:#58595B;stroke-width:0.3701;stroke-miterlimit:10;}
	.st18{fill:#E41F28;}
	.st19{fill:#E6E7E8;}
	.st20{fill:#A7A9AC;}
	.st21{fill:#FFFFFF;stroke:#58595B;stroke-width:0.0945;stroke-linecap:round;stroke-linejoin:round;stroke-miterlimit:10;}
	.st22{fill:#C51A20;}
	.st23{fill:#B34215;}
	.st24{fill:#E45620;}
	.st25{fill:#C6401B;}
	.st26{fill:#960C10;}
	.st27{fill:#414042;}
	.st28{fill:none;stroke:#58595B;stroke-width:0.3617;stroke-miterlimit:10;}
	.st29{fill:#FFFFFF;stroke:#58595B;stroke-width:0.0452;stroke-miterlimit:10;}
	.st30{fill:#378C3B;}
	.st31{fill:#00ABE1;}
	.st32{fill:#150958;}
	.st33{fill:#BC3D19;}
	.st34{fill:none;stroke:#58595B;stroke-width:0.4122;stroke-miterlimit:10;}
	.st35{fill:none;stroke:#C2952D;stroke-width:0.1333;stroke-miterlimit:10;}
	.st36{fill:#2E6733;}
	.st37{fill:#C2952D;}
	.st38{fill:#B34526;}
	.st39{fill:none;stroke:#C2952D;stroke-width:0.1521;stroke-miterlimit:10;}
	.st40{fill:none;stroke:#58595B;stroke-width:0.1297;stroke-linecap:round;stroke-linejoin:round;stroke-miterlimit:10;}
	.st41{fill:none;stroke:#58595B;stroke-width:0.5546;stroke-miterlimit:10;}
	.st42{fill:#FFFFFF;stroke:#58595B;stroke-width:0.1415;stroke-linecap:round;stroke-linejoin:round;stroke-miterlimit:10;}
	.st43{fill:none;stroke:#58595B;stroke-width:0.5421;stroke-miterlimit:10;}
	.st44{fill:#FFFFFF;stroke:#58595B;stroke-width:0.0678;stroke-miterlimit:10;}
	.st45{fill:none;stroke:#58595B;stroke-width:0.4665;stroke-miterlimit:10;}
	.st46{fill:none;stroke:#C2952D;stroke-width:0.1508;stroke-miterlimit:10;}
	.st47{fill:none;stroke:#C2952D;stroke-width:0.1722;stroke-miterlimit:10;}
	.st48{fill:none;stroke:#BCBEC0;stroke-miterlimit:10;}
	.st49{fill:none;stroke:#58595B;stroke-width:1.3338;stroke-miterlimit:10;}
	.st50{fill:none;stroke:#58595B;stroke-width:1.3338;stroke-linejoin:round;stroke-miterlimit:10;}
	.st51{fill:none;stroke:#58595B;stroke-width:1.5665;stroke-miterlimit:10;}
	.st52{fill:#FFFFFF;stroke:#58595B;stroke-width:0.8701;stroke-miterlimit:10;}
	.st53{fill:#FFFFFF;stroke:#58595B;stroke-width:1.5455;stroke-linecap:round;stroke-miterlimit:10;}
	.st54{fill:none;stroke:#C6401B;stroke-width:0.54;stroke-miterlimit:10;}
	.st55{clip-path:url(#SVGID_00000052794300833918402130000017550902942084954544_);}
	.st56{fill:none;stroke:#C6401B;stroke-width:1.1204;stroke-miterlimit:10;}
	.st57{fill:none;stroke:#C6401B;stroke-width:0.9165;stroke-miterlimit:10;}
	.st58{fill:#4A9549;}
	.st59{clip-path:url(#SVGID_00000024701973094184278480000000776414200537440645_);}
	.st60{fill:none;stroke:#58595B;stroke-width:1.4;stroke-linejoin:round;stroke-miterlimit:10;}
	.st61{fill:none;stroke:#58595B;stroke-width:1.0174;stroke-linecap:round;stroke-linejoin:bevel;stroke-miterlimit:10;}
	.st62{fill:none;stroke:#58595B;stroke-width:1.0174;stroke-miterlimit:10;}
	.st63{fill:none;stroke:#58595B;stroke-width:1.1836;stroke-miterlimit:10;}
	.st64{fill:none;stroke:#58595B;stroke-width:1.3856;stroke-miterlimit:10;}
	.st65{fill:none;stroke:#58595B;stroke-width:0.919;stroke-miterlimit:10;}
	.st66{fill:none;stroke:#58595B;stroke-width:0.919;stroke-linejoin:round;stroke-miterlimit:10;}
	.st67{fill:#808285;}
</style>
<g>
	<defs>
		<rect id="SVGID_00000025403897544337280620000006196439384543616445_" x="-11.57" y="-19.29" width="120" height="120"/>
	</defs>
	<clipPath id="SVGID_00000018196123491620242640000011032972248958233530_">
		<use xlink:href="#SVGID_00000025403897544337280620000006196439384543616445_"  style="overflow:visible;"/>
	</clipPath>
	<g style="clip-path:url(#SVGID_00000018196123491620242640000011032972248958233530_);">
		<g>
			<path class="st20" d="M73.12,57.56c-3.32-0.03-6.36-0.76-9.21-2.25c-0.39-0.2-0.43-0.76-0.06-1.01c0.16-0.11,0.28,0.06,0.4,0.12
				c1.84,1,3.78,1.69,5.85,2.02c8.27,1.31,16.35-3.36,19.37-11.19c3.97-10.31-2.43-21.76-13.29-23.79
				c-0.43-0.08-0.65-0.18-0.53-0.69c0.11-0.45,0.13-0.94,0.14-1.41c0.01-0.4,0.16-0.45,0.53-0.38c6.62,1.3,11.44,4.99,14.3,11.08
				c5.33,11.35-1.64,24.82-13.93,27.12C75.46,57.42,74.24,57.52,73.12,57.56z"/>
			<path class="st2" d="M56.21,39.83c0-0.47,0-0.95,0-1.42c0.27-3.93,1.58-7.47,4.24-10.39c4.56-4.99,10.2-6.56,16.73-4.91
				c0.43,0.11,0.63,0.06,0.7-0.37c0.06-0.41,0.27-0.47,0.62-0.29c0.15,0.08,0.32,0.11,0.48,0.17c0.69,0.25,0.71,0.26,0.48,0.98
				c-0.11,0.34,0.13,0.36,0.31,0.44c1.78,0.82,3.4,1.88,4.76,3.3c4.54,4.76,6.09,10.37,4.17,16.66
				c-1.92,6.26-6.29,10.15-12.72,11.45c-9.28,1.88-18.21-4.51-19.57-13.85C56.32,41.01,56.27,40.42,56.21,39.83z"/>
			<g>
				<circle class="st5" cx="72.87" cy="39.34" r="16.46"/>
				<path class="st20" d="M78.38,23.28c-8.85-3.04-18.49,1.68-21.53,10.53c-3.04,8.85,1.68,18.49,10.53,21.53
					c8.85,3.04,18.49-1.68,21.53-10.53C91.95,35.96,87.24,26.32,78.38,23.28z M79.97,53.8c-3.87,1.89-8.24,2.17-12.32,0.77
					c-4.08-1.4-7.36-4.3-9.26-8.17c-1.89-3.87-2.17-8.25-0.77-12.32c1.4-4.08,4.3-7.36,8.17-9.26c0.09-0.04,0.18-0.08,0.28-0.13
					c-0.11,0.15-0.23,0.29-0.37,0.4c-0.34,0.26-0.77,0.27-1.11,0.5c-0.32,0.21-0.64,0.59-0.83,0.89c-0.21,0.32-0.3,0.77-0.54,1.07
					c-0.31,0.39-0.69,0.56-0.81,1.09c0.56,0.4,0.67-0.8,1.21-0.67c0.02,0.47-0.35,1.2-0.55,1.63c-0.28,0.59-0.45,0.71-0.26,1.36
					c0.15,0.52,0.15,0.83,0.69,1.09c0.5,0.24,0.63,0.55,0.68,1.12c0.37,0.22,0.59,0.37,0.49,0.83c0.14,0.16,0.36,0.58,0.52,0.69
					c0.24,0.16,0.81-0.07,0.96,0.31c0.25,0.63-1.13,1.57-1.45,1.95c-0.47,0.56-0.83,1.48-0.38,2.15c0.23,0.34,0.52,0.57,0.48,1.03
					c-0.04,0.43-0.23,0.73-0.18,1.17c0.07,0.68,0.63,1.09,0.93,1.68c0.38,0.79,0.08,1.53-0.2,2.36c-0.3,0.87-0.19,1.64-0.35,2.47
					c-0.16,0.86-0.18,1.7-0.28,2.55c-0.07,0.64,0.13,1.72,0.92,1.85c0.15-0.26-0.07-0.59-0.01-0.88c0.05-0.27,0.22-0.51,0.26-0.79
					c0.08-0.57,0.2-0.89,0.72-1.23c0.18-0.12,0.4-0.2,0.59-0.32c0.36-0.23,0.14-0.21,0.25-0.56c0.14-0.44,0.2-0.18,0.51-0.23
					c0.16-0.02,0.39-0.19,0.53-0.26c0.31-0.16,0.77-0.33,1.05-0.55c0.31-0.25,0.44-0.71,0.76-0.97c0.37-0.3,0.7-0.18,1.12-0.32
					c0.54-0.17,0.48-0.57,0.71-0.99c0.38-0.69,1-1.39,1.66-1.82c0.84-0.54,1.3-1.08,0.84-2.03c-0.23-0.47-0.45-0.44-0.87-0.72
					c-0.32-0.22-0.55-0.58-0.9-0.75c-0.21-0.1-0.36-0.07-0.54-0.19c-0.17-0.11-0.11-0.22-0.3-0.28c-0.29-0.1-0.9,0.37-1.02-0.1
					c-0.06-0.26,0.56-0.72,0.64-1.01c0.1-0.36,0.16-0.99-0.12-1.3c-0.11-0.12-0.39-0.23-0.53-0.35c-0.16-0.14-0.31-0.32-0.44-0.49
					c-0.17-0.22-0.52-0.61-0.53-0.9c-0.27-0.1-0.4-0.32-0.68-0.41c-0.25-0.08-0.45-0.02-0.71-0.15c-0.23-0.11-0.42-0.38-0.68-0.43
					c-0.18-0.03-0.5,0.1-0.68,0.13c-0.46,0.09-0.93,0.1-1.38,0.04c-0.7-0.1-0.74-0.4-0.49-1l-0.03-0.23c0.48-0.6,0.05-0.8-0.38-1.13
					c0.1-0.51,0.82-0.65,0.75-1.27c-0.5-0.2-1.54,1.04-1.75,0.27c-0.14-0.5,0.68-1.49,1.04-1.75c0.37-0.26,1.5-0.58,1.94-0.48
					c0.35,0.07,0.59,0.32,0.62,0.66c0.03,0.37-0.26,0.61-0.34,0.98c0.46,0.05,0.54-0.53,0.62-0.83c0.14-0.5,0.38-0.37,0.75-0.64
					c0.34-0.24,0.49-0.59,0.88-0.81c0.3-0.17,0.65-0.33,0.96-0.47c0.36-0.16,0.66-0.03,1.01-0.12c0.53-0.14,0.14-0.86,0.76-0.6
					c0.22,0.09,0.06,0.19,0.38,0.23c0.14,0.01,0.41-0.02,0.56-0.03c0.69-0.04,0.28-0.25,0.11-0.66c-0.21-0.53,0.26-0.28,0.64-0.22
					c0.28,0.05,0.25-0.06,0.44,0.18c0.16,0.21-0.03,0.35,0.28,0.44c0.58,0.18,0.38-0.53,0.32-0.76c-0.11-0.4-0.08-0.64-0.54-0.81
					c0.09-0.13,0.17-0.32,0.15-0.48c-0.4-0.08-0.37-0.39-0.63-0.6c-0.43-0.36-0.49,0.08-0.78,0.28c-0.31,0.21-0.68,0.03-0.96,0.32
					c-0.28,0.31-0.23,0.63-0.77,0.34c0.15-0.19,0.22-0.48,0.29-0.71c-0.16-0.08-0.3-0.17-0.44-0.28c0.2-0.58,0.86-0.41,1.31-0.31
					c0.51,0.11,0.84-0.34,1.3-0.27c0.43,0.06,0.5,0.82,1.13,0.61c0.36-0.12,0.27-0.29,0.24-0.54c-0.01-0.07-0.11-0.24-0.13-0.31
					c0-0.01,0-0.01,0-0.02c0.41,0.06,0.83,0.14,1.24,0.23c0,0.24,0.07,0.56,0.11,0.74c0.03,0.13,0.12,0.25,0.13,0.39
					c0.01,0.16-0.19,0.28-0.04,0.43c0.22,0.24,1.32-0.43,1.56-0.52c0.3-0.11,0.49-0.17,0.5-0.37c1.24,0.47,2.41,1.08,3.48,1.82
					c0.05,0.15,0.11,0.3,0.16,0.47c0.11,0.36,0.15,0.67,0.48,0.92c0.19,0.15,0.89,0.37,0.43,0.77c-0.42,0.37-0.51-0.33-0.6-0.52
					c-0.12-0.26-0.59-0.67-0.73-0.21c-0.21,0.69,1.37,1.11,0.78,1.74c0.15,0.17,0.45,0.48,0.3,0.72c-0.19,0.31-0.55-0.05-0.68,0.37
					c-0.19,0.6,0.29,1.32,0.97,1.32c0.73-0.01,0.55-1.08,1.32-0.91c0.31,0.06,0.45,0.21,0.64,0.51c0.16,0.24,0.16,0.67,0.47,0.74
					c0.09-0.17,0-0.35,0.03-0.53c0.21,0.13,0.57,0.58,0.63,0.82c0.09,0.37-0.07,0.79,0.54,0.57c-0.05-0.08-0.04-0.23-0.07-0.29
					c0.62,0.21,0.96,0.62,1.04,1.25c0.18,1.4-0.95-0.05-1.24,0.55c-0.32-0.24-0.38-0.58-0.63-0.86c-0.12-0.13-0.41-0.18-0.49-0.3
					c-0.12-0.17-0.01-0.36-0.11-0.52c-0.39-0.63-1.86-0.33-2.45-0.22c-0.16,0.03-0.31-0.01-0.45,0.1c-0.24,0.2-0.04,0.33-0.17,0.55
					c-0.18,0.31-0.67,0.31-0.89,0.53c-0.53,0.53-0.21,1.66-0.54,2.34c-0.18,0.38-0.75,0.66-0.7,1.04c0.02,0.17,0.22,0.37,0.26,0.57
					c0.03,0.18,0,0.39,0.06,0.59c0.19,0.64,0.52,1.38,0.78,2c0.15,0.35,0.45,0.54,0.84,0.59c0.32,0.04,0.81,0.1,1.14,0.06
					c0.43-0.05,0.57-0.29,0.9,0.02c0.27,0.24,0.4,0.73,0.88,0.53c0.2,0.4-0.31,0.79-0.49,1.1c-0.23,0.39-0.19,0.81-0.05,1.25
					c0.16,0.53,0.21,0.63-0.05,1.18c-0.2,0.43-0.45,0.8-0.7,1.2c-0.24,0.39-0.61,0.62-0.75,1.07c-0.13,0.42-0.06,0.81-0.27,1.23
					c-0.18,0.37-0.36,0.83-0.6,1.18c-0.24,0.35-0.63,0.61-0.89,0.97c-0.24,0.34-0.38,0.85-0.22,1.25c0.17,0.42,0.5,0.33,0.91,0.19
					c0.81-0.27,1.38-0.99,2.03-1.5c0.66-0.52,1.31-0.98,1.84-1.58c0.11-0.13,0.24-0.25,0.36-0.37
					C84.56,50.78,82.47,52.58,79.97,53.8z"/>
			</g>
			<path class="st20" d="M78.97,24.39l-1.45-0.57c-0.1-0.04-0.15-0.15-0.11-0.25l0.48-1.22c0.04-0.1,0.15-0.15,0.25-0.11l1.45,0.57
				c0.1,0.04,0.15,0.15,0.11,0.25l-0.48,1.22C79.18,24.39,79.07,24.43,78.97,24.39z"/>
			<path class="st20" d="M66.17,57.63l-1.53-0.59c-0.08-0.03-0.12-0.12-0.09-0.19l0.24-0.63c0.03-0.08,0.12-0.12,0.19-0.09
				l1.53,0.59c0.08,0.03,0.12,0.12,0.09,0.19l-0.24,0.63C66.34,57.62,66.25,57.66,66.17,57.63z"/>
			<path class="st20" d="M77.87,60.03c-1.76-0.41-2.69-1.36-2.69-1.36c0-0.25-0.16-0.45-0.36-0.45h-2.98c-0.2,0-0.36,0.2-0.36,0.45
				c0,0-0.85,0.93-3.31,1.44c-2.89,0.5-4.81,1.27-4.87,1.5h20.27C83.51,61.37,81.17,60.52,77.87,60.03z"/>
		</g>
		<g>
			<rect x="51.74" y="72.9" class="st1" width="44.59" height="27.95"/>
			<path class="st13" d="M97.05,75.54H51.01c-0.51,0-0.92-0.41-0.92-0.92V62.54c0-0.51,0.41-0.92,0.92-0.92h46.05
				c0.51,0,0.92,0.41,0.92,0.92v12.08C97.98,75.13,97.56,75.54,97.05,75.54z"/>
		</g>
		<g>
			<g>
				<g>
					<g>
						<line class="st6" x1="15.62" y1="28.94" x2="14.09" y2="63.35"/>
						<path class="st60" d="M14.14,61.72l4.56,17.45c0.11,0.41,0.17,0.83,0.18,1.25l0.75,18.27"/>
						<path class="st6" d="M14.09,63.35L12.9,81.13c-0.04,0.61-0.18,1.22-0.4,1.79L6.82,97.19"/>
						<path class="st6" d="M38.94,36.22l-11.28,7.69c-0.41,0.28-0.96,0.19-1.26-0.2c-1.93-2.49-8.55-10.78-10.96-10.4
							c-3.08,0.49-3.03,12.49-2.95,15.93c0.01,0.59,0.2,1.16,0.54,1.65l7.74,11.17"/>
						<ellipse class="st7" cx="15.69" cy="15.42" rx="15.24" ry="15.32"/>
					</g>
				</g>
				<path class="st2" d="M25.47,94.75c-3.46-0.21-6.39,1.56-6.54,3.96l11.35,0.7c0.68,0.04,1.23-0.36,1.12-0.83
					C30.92,96.57,28.49,94.93,25.47,94.75z"/>
			</g>
			<path class="st2" d="M13.4,94.85c-3.31-1.05-6.58-0.04-7.31,2.25l10.84,3.44c0.65,0.21,1.28-0.05,1.29-0.54
				C18.25,97.94,16.29,95.76,13.4,94.85z"/>
			<path class="st2" d="M43.52,36.1c1.81-1.37,2.68-3.48,1.74-4.7c-0.94-1.23-3.34-1.11-5.14,0.26s-2.51,3.48-1.57,4.7
				C39.48,37.59,41.71,37.47,43.52,36.1z"/>
			<path class="st2" d="M20.25,65.79c1.44,1.75,3.68,2.49,4.87,1.5c1.19-0.99,0.88-3.32-0.56-5.07c-1.44-1.75-3.57-2.38-4.76-1.39
				C18.62,61.82,18.82,64.04,20.25,65.79z"/>
		</g>
	</g>
</g>
</svg>
