<?xml version="1.0" encoding="utf-8"?>
<!-- Generator: Adobe Illustrator 26.3.1, SVG Export Plug-In . SVG Version: 6.00 Build 0)  -->
<svg version="1.1" id="Layer_1" xmlns="http://www.w3.org/2000/svg" xmlns:xlink="http://www.w3.org/1999/xlink" x="0px" y="0px"
	 viewBox="0 0 111.99 105.11" style="enable-background:new 0 0 111.99 105.11;" xml:space="preserve">
<style type="text/css">
	.st0{fill:#939598;}
	.st1{fill:#BCBEC0;}
	.st2{fill:#58595B;}
	.st3{fill:none;stroke:#58595B;stroke-miterlimit:10;}
	.st4{fill:#FFCB05;}
	.st5{fill:#FFFFFF;}
	.st6{fill:none;stroke:#58595B;stroke-width:1.4;stroke-miterlimit:10;}
	.st7{fill:#E31F26;}
	.st8{fill:#FFFFFF;stroke:#BBBDBF;stroke-width:1.0296;stroke-miterlimit:10;}
	.st9{fill:#BBBDBF;}
	.st10{fill:#FFFFFF;stroke:#BBBDBF;stroke-width:2.2652;stroke-linecap:round;stroke-linejoin:round;stroke-miterlimit:10;}
	.st11{fill:#FFFFFF;stroke:#BCBEC0;stroke-width:2.2652;stroke-linecap:round;stroke-linejoin:round;stroke-miterlimit:10;}
	.st12{fill:#F37021;}
	.st13{fill:#D1D3D4;}
	.st14{fill:#FFFFFF;stroke:#D1D3D4;stroke-width:1.7422;stroke-miterlimit:10;}
	.st15{fill:none;}
	.st16{fill:none;stroke:#58595B;stroke-width:0.0865;stroke-linecap:round;stroke-linejoin:round;stroke-miterlimit:10;}
	.st17{fill:none;stroke:#58595B;stroke-width:0.3701;stroke-miterlimit:10;}
	.st18{fill:#E41F28;}
	.st19{fill:#E6E7E8;}
	.st20{fill:#A7A9AC;}
	.st21{fill:#FFFFFF;stroke:#58595B;stroke-width:0.0945;stroke-linecap:round;stroke-linejoin:round;stroke-miterlimit:10;}
	.st22{fill:#C51A20;}
	.st23{fill:#B34215;}
	.st24{fill:#E45620;}
	.st25{fill:#C6401B;}
	.st26{fill:#960C10;}
	.st27{fill:#414042;}
	.st28{fill:none;stroke:#58595B;stroke-width:0.3617;stroke-miterlimit:10;}
	.st29{fill:#FFFFFF;stroke:#58595B;stroke-width:0.0452;stroke-miterlimit:10;}
	.st30{fill:#378C3B;}
	.st31{fill:#00ABE1;}
	.st32{fill:#150958;}
	.st33{fill:#BC3D19;}
	.st34{fill:none;stroke:#58595B;stroke-width:0.4122;stroke-miterlimit:10;}
	.st35{fill:none;stroke:#C2952D;stroke-width:0.1333;stroke-miterlimit:10;}
	.st36{fill:#2E6733;}
	.st37{fill:#C2952D;}
	.st38{fill:#B34526;}
	.st39{fill:none;stroke:#C2952D;stroke-width:0.1521;stroke-miterlimit:10;}
	.st40{fill:none;stroke:#58595B;stroke-width:0.1297;stroke-linecap:round;stroke-linejoin:round;stroke-miterlimit:10;}
	.st41{fill:none;stroke:#58595B;stroke-width:0.5546;stroke-miterlimit:10;}
	.st42{fill:#FFFFFF;stroke:#58595B;stroke-width:0.1415;stroke-linecap:round;stroke-linejoin:round;stroke-miterlimit:10;}
	.st43{fill:none;stroke:#58595B;stroke-width:0.5421;stroke-miterlimit:10;}
	.st44{fill:#FFFFFF;stroke:#58595B;stroke-width:0.0678;stroke-miterlimit:10;}
	.st45{fill:none;stroke:#58595B;stroke-width:0.4665;stroke-miterlimit:10;}
	.st46{fill:none;stroke:#C2952D;stroke-width:0.1508;stroke-miterlimit:10;}
	.st47{fill:none;stroke:#C2952D;stroke-width:0.1722;stroke-miterlimit:10;}
	.st48{fill:none;stroke:#BCBEC0;stroke-miterlimit:10;}
	.st49{fill:none;stroke:#58595B;stroke-width:1.3338;stroke-miterlimit:10;}
	.st50{fill:none;stroke:#58595B;stroke-width:1.3338;stroke-linejoin:round;stroke-miterlimit:10;}
	.st51{fill:none;stroke:#58595B;stroke-width:1.5665;stroke-miterlimit:10;}
	.st52{fill:#FFFFFF;stroke:#58595B;stroke-width:0.8701;stroke-miterlimit:10;}
	.st53{fill:#FFFFFF;stroke:#58595B;stroke-width:1.5455;stroke-linecap:round;stroke-miterlimit:10;}
	.st54{fill:none;stroke:#C6401B;stroke-width:0.54;stroke-miterlimit:10;}
	.st55{clip-path:url(#SVGID_00000147912244728276157510000015177200906411735688_);}
	.st56{fill:none;stroke:#C6401B;stroke-width:1.1204;stroke-miterlimit:10;}
	.st57{fill:none;stroke:#C6401B;stroke-width:0.9165;stroke-miterlimit:10;}
	.st58{fill:#4A9549;}
	.st59{clip-path:url(#SVGID_00000101787915638139233610000000801597612884460173_);}
	.st60{fill:none;stroke:#58595B;stroke-width:1.4;stroke-linejoin:round;stroke-miterlimit:10;}
	.st61{fill:none;stroke:#58595B;stroke-width:1.0174;stroke-linecap:round;stroke-linejoin:bevel;stroke-miterlimit:10;}
	.st62{fill:none;stroke:#58595B;stroke-width:1.0174;stroke-miterlimit:10;}
	.st63{fill:none;stroke:#58595B;stroke-width:1.1836;stroke-miterlimit:10;}
	.st64{fill:none;stroke:#58595B;stroke-width:1.3856;stroke-miterlimit:10;}
	.st65{fill:none;stroke:#58595B;stroke-width:0.919;stroke-miterlimit:10;}
	.st66{fill:none;stroke:#58595B;stroke-width:0.919;stroke-linejoin:round;stroke-miterlimit:10;}
	.st67{fill:#808285;}
</style>
<g>
	<g>
		<g>
			<g>
				<g>
					<path class="st2" d="M61.33,63.76c2.5,0.06,4.49,1.66,4.44,3.57l-8.18-0.19c-0.49-0.01-0.86-0.37-0.75-0.74
						C57.31,64.85,59.15,63.71,61.33,63.76z"/>
					<path class="st2" d="M67.15,67.63c2.5,0.06,4.49,1.54,4.45,3.3l-8.18-0.19c-0.49-0.01-0.86-0.34-0.75-0.68
						C63.13,68.63,64.97,67.58,67.15,67.63z"/>
					<path class="st61" d="M68.44,15.85c-0.07,1.53-0.26,14.98,0.46,28.05c0.66,12.12,2.11,26.25,2.14,26.5"/>
					<path class="st62" d="M65.24,67.3c-0.01-3.85,2.65-16.75,3.69-23.09"/>
					<path class="st62" d="M65.08,39.08l-5.26-7.8c-0.38-0.56-0.33-1.3,0.13-1.81l8.45-9.4l9.88,9.76c0.53,0.52,0.56,1.36,0.08,1.92
						l-7.32,8.61"/>
					<ellipse class="st4" cx="67.94" cy="8.62" rx="8.44" ry="8.62"/>
				</g>
				<g>
					<path class="st2" d="M69.09,39.19c1.2-1.15,2.8-1.43,3.57-0.62c0.77,0.81,0.41,2.39-0.79,3.54c-1.2,1.15-1.5,0.11-2.26-0.69
						C68.83,40.61,67.89,40.34,69.09,39.19z"/>
					<path class="st2" d="M68.31,38.64c1.35,0.94,0.95,1.47,0.32,2.4c-0.63,0.93-1.25,1.92-2.6,0.98c-1.35-0.94-1.93-2.46-1.3-3.39
						C65.36,37.7,66.96,37.7,68.31,38.64z"/>
				</g>
			</g>
		</g>
		<g>
			<g>
				<g>
					<path class="st2" d="M81.03,83.75c2.9,0.07,5.22,1.93,5.17,4.15l-9.51-0.22c-0.57-0.01-1-0.43-0.87-0.86
						C76.35,85.02,78.5,83.69,81.03,83.75z"/>
					<path class="st2" d="M89.74,86.3c2.9,0.07,5.22,1.79,5.18,3.84l-9.51-0.22c-0.57-0.01-1-0.4-0.87-0.79
						C85.06,87.46,87.21,86.24,89.74,86.3z"/>
					<path class="st63" d="M86.3,24.67c-1.67,4.86-5.82,27.01,7.94,64.82"/>
					<path class="st63" d="M85.56,87.41c-0.46-3.39-1.2-23.99,0-31.37"/>
					<path class="st63" d="M65.57,44.31l12.47,0.19c0.59,0.01,1.13-0.35,1.36-0.9l5.84-14.41l3.2,13.58c0.12,0.5,0.2,1.01,0.23,1.53
						l0.64,11.24"/>
					<ellipse class="st12" cx="87.86" cy="17.31" rx="9.82" ry="10.03"/>
				</g>
				<g>
					<path class="st2" d="M86.99,58.18c-0.09-1.93,1.03-3.03,2.32-3.08c1.29-0.06,2.42,1.46,2.51,3.4c0.09,1.93-1.21,1.92-2.5,1.98
						S87.09,60.11,86.99,58.18z"/>
					<path class="st2" d="M62.31,46.27c-1.9-0.16-3.54-1.4-3.45-2.7c0.09-1.31,1.88-2.19,3.78-2.03s3.37,1.35,3.28,2.66
						C65.83,45.5,64.21,46.43,62.31,46.27z"/>
				</g>
			</g>
		</g>
		
			<rect x="22.72" y="69.46" transform="matrix(0.996 -0.0888 0.0888 0.996 -6.1058 3.0194)" class="st1" width="16.29" height="1.29"/>
		<polygon class="st1" points="69.46,95.25 44.16,101.86 43.89,100.61 69.19,93.99 		"/>
		<polygon class="st1" points="56.91,98.38 28.26,70.67 29.2,69.79 57.85,97.5 		"/>
		<g>
			<polygon class="st1" points="44.47,104.78 43.27,105.11 43.27,81 44.47,81 			"/>
			<polygon class="st20" points="43.29,105.11 42.22,103.9 42.22,81 43.29,81 			"/>
		</g>
		<g>
			<polygon class="st1" points="23.12,74.09 21.92,74.36 21.92,55.93 23.12,55.93 			"/>
			<polygon class="st20" points="21.95,74.36 20.87,73.12 20.87,55.93 21.95,55.93 			"/>
		</g>
		<g>
			<rect x="40.56" y="52.9" class="st1" width="1.21" height="27.64"/>
			<rect x="39.52" y="52.9" class="st0" width="1.07" height="27.64"/>
		</g>
		<g>
			<polygon class="st1" points="70.45,98.88 69.25,99.11 69.25,75 70.45,75 			"/>
			<polygon class="st20" points="69.28,99.11 68.2,97.96 68.2,75 69.28,75 			"/>
		</g>
		<g>
			<g>
				<g>
					<path class="st2" d="M19.49,92.73c-3.4,0.08-6.11,2.26-6.05,4.86l11.14-0.26c0.67-0.02,1.17-0.5,1.02-1
						C24.97,94.21,22.46,92.66,19.49,92.73z"/>
					<path class="st2" d="M9.3,95.72c-3.4,0.08-6.11,2.09-6.06,4.5l11.14-0.26c0.67-0.02,1.17-0.46,1.02-0.93
						C14.77,97.07,12.26,95.65,9.3,95.72z"/>
					<path class="st64" d="M13.32,23.57c1.96,5.69,6.81,31.62-9.3,75.88"/>
					<path class="st64" d="M14.19,97.01c0.54-3.97,1.41-28.08,0-36.72"/>
					<path class="st64" d="M34.27,38.73l-10.86,8.52c-0.54,0.39-1.3,0.17-1.57-0.45l-7.27-17.94l-3.75,15.89
						c-0.14,0.59-0.23,1.18-0.27,1.79L9.79,59.71"/>
					<ellipse class="st7" cx="11.5" cy="14.95" rx="11.5" ry="11.74"/>
				</g>
				<g>
					<path class="st2" d="M12.33,63.12c0.11-2.27-1.03-4.16-2.54-4.23c-1.51-0.07-2.83,1.71-2.94,3.98c-0.11,2.27,1,4.42,2.52,4.49
						C10.88,67.43,12.22,65.39,12.33,63.12z"/>
					<path class="st2" d="M38.32,38.85c1.8-1.32,2.69-3.55,1.8-4.81S36.9,33,35.1,34.32c-1.8,1.32-2.55,3.41-1.66,4.66
						C34.33,40.24,36.51,40.18,38.32,38.85z"/>
				</g>
			</g>
		</g>
		<path class="st13" d="M77.96,72.62l-39.8,8.47c-0.06,0.01-0.12-0.01-0.15-0.06l-21-27.42c-0.07-0.1-0.01-0.24,0.11-0.25
			l24.11-2.04c0.03,0,0.06,0,0.09,0.02l36.68,20.99C78.13,72.41,78.1,72.59,77.96,72.62z"/>
		<polygon class="st1" points="78.09,73.65 38.04,82.82 38.05,81.06 78.07,72.51 		"/>
		<polygon class="st20" points="38.05,81.06 38.05,82.82 16.98,54.15 16.98,53.52 		"/>
		<g>
			<g>
				<g>
					<g>
						<line class="st65" x1="102.03" y1="51.88" x2="103.04" y2="74.47"/>
						<line class="st66" x1="103" y1="73.4" x2="101.42" y2="97.63"/>
						<polyline class="st65" points="103.04,74.47 103.96,86.04 105.03,97.5 						"/>
						<path class="st65" d="M86.73,56.66l7.41,5.05c0.27,0.18,0.63,0.12,0.83-0.13c1.27-1.64,5.61-7.08,7.2-6.83
							c2.02,0.32,1.99,8.2,1.94,10.45c-0.01,0.39-0.13,0.76-0.35,1.08l-5.08,7.33"/>
						<ellipse class="st7" cx="101.99" cy="43" rx="10" ry="10.06"/>
					</g>
				</g>
				<path class="st2" d="M97.53,94.92c2.27-0.14,4.2,1.03,4.29,2.6l-7.45,0.46c-0.45,0.03-0.81-0.24-0.73-0.55
					C93.95,96.11,95.55,95.04,97.53,94.92z"/>
			</g>
			<path class="st2" d="M101.2,94.91c2.27-0.15,4.2,1.01,4.31,2.58l-7.45,0.49c-0.45,0.03-0.81-0.23-0.73-0.54
				C97.62,96.12,99.22,95.04,101.2,94.91z"/>
			<path class="st2" d="M83.72,56.58c-1.19-0.9-1.76-2.28-1.14-3.09c0.62-0.81,2.19-0.73,3.38,0.17s1.65,2.28,1.03,3.09
				C86.37,57.56,84.91,57.48,83.72,56.58z"/>
			<path class="st2" d="M98.99,76.07c-0.94,1.15-2.41,1.63-3.2,0.99c-0.78-0.65-0.58-2.18,0.37-3.33c0.94-1.15,2.34-1.56,3.12-0.91
				C100.06,73.46,99.93,74.92,98.99,76.07z"/>
		</g>
		<g>
			<g>
				<rect x="50.03" y="61.79" class="st13" width="5.57" height="11.46"/>
				<ellipse class="st1" cx="52.82" cy="61.73" rx="2.79" ry="0.73"/>
				<ellipse class="st13" cx="52.82" cy="73.23" rx="2.79" ry="0.73"/>
				<g>
					<rect x="50.02" y="71.2" class="st1" width="5.57" height="2.34"/>
					<ellipse class="st20" cx="52.8" cy="71.08" rx="2.79" ry="0.73"/>
					<ellipse class="st1" cx="52.8" cy="73.53" rx="2.79" ry="0.73"/>
				</g>
				<g>
					<rect x="50.02" y="68.62" class="st1" width="5.57" height="2.34"/>
					<ellipse class="st20" cx="52.8" cy="68.71" rx="2.79" ry="0.73"/>
					<ellipse class="st1" cx="52.8" cy="70.94" rx="2.79" ry="0.73"/>
				</g>
				<g>
					<rect x="50.02" y="66.25" class="st1" width="5.57" height="2.34"/>
					<ellipse class="st20" cx="52.8" cy="66.34" rx="2.79" ry="0.73"/>
					<ellipse class="st1" cx="52.8" cy="68.57" rx="2.79" ry="0.73"/>
				</g>
				<g>
					<rect x="50.02" y="63.88" class="st1" width="5.57" height="2.34"/>
					<ellipse class="st20" cx="52.8" cy="63.97" rx="2.79" ry="0.73"/>
					<ellipse class="st1" cx="52.8" cy="66.2" rx="2.79" ry="0.73"/>
				</g>
				<g>
					<rect x="50.02" y="61.51" class="st1" width="5.57" height="2.34"/>
					<ellipse class="st20" cx="52.8" cy="61.6" rx="2.79" ry="0.73"/>
					<ellipse class="st1" cx="52.8" cy="63.83" rx="2.79" ry="0.73"/>
				</g>
				<g>
					<rect x="50.02" y="59.14" class="st1" width="5.57" height="2.34"/>
					<ellipse class="st20" cx="52.8" cy="59.23" rx="2.79" ry="0.73"/>
					<ellipse class="st1" cx="52.8" cy="61.46" rx="2.79" ry="0.73"/>
				</g>
				<g>
					<ellipse class="st67" cx="52.88" cy="59.15" rx="0.97" ry="0.23"/>
					<rect x="51.91" y="28.24" class="st67" width="1.93" height="30.9"/>
				</g>
			</g>
			<ellipse class="st0" cx="52.88" cy="28.22" rx="0.97" ry="0.25"/>
		</g>
		<g>
			<g>
				<ellipse class="st1" cx="45.66" cy="61.02" rx="2.56" ry="0.67"/>
				<g>
					<rect x="43.1" y="65.16" class="st1" width="5.11" height="2.15"/>
					<ellipse class="st20" cx="45.65" cy="65.25" rx="2.56" ry="0.67"/>
					<ellipse class="st1" cx="45.65" cy="67.29" rx="2.56" ry="0.67"/>
				</g>
				<g>
					<rect x="43.1" y="62.99" class="st1" width="5.11" height="2.15"/>
					<ellipse class="st20" cx="45.65" cy="63.08" rx="2.56" ry="0.67"/>
					<ellipse class="st1" cx="45.65" cy="65.12" rx="2.56" ry="0.67"/>
				</g>
				<g>
					<rect x="43.1" y="60.82" class="st1" width="5.11" height="2.15"/>
					<ellipse class="st20" cx="45.65" cy="60.9" rx="2.56" ry="0.67"/>
					<ellipse class="st1" cx="45.65" cy="62.95" rx="2.56" ry="0.67"/>
				</g>
				<g>
					<rect x="43.1" y="58.64" class="st1" width="5.11" height="2.15"/>
					<ellipse class="st20" cx="45.65" cy="58.73" rx="2.56" ry="0.67"/>
					<ellipse class="st1" cx="45.65" cy="60.77" rx="2.56" ry="0.67"/>
				</g>
				<g>
					<ellipse class="st67" cx="45.72" cy="58.75" rx="0.89" ry="0.11"/>
					<rect x="44.83" y="44.04" class="st67" width="1.77" height="14.71"/>
				</g>
			</g>
			<ellipse class="st0" cx="45.72" cy="44.04" rx="0.88" ry="0.23"/>
		</g>
		<g>
			<g>
				<ellipse class="st1" cx="35.03" cy="55.49" rx="1.86" ry="0.49"/>
				<g>
					<rect x="33.16" y="55.34" class="st1" width="3.72" height="1.57"/>
					<ellipse class="st20" cx="35.02" cy="55.4" rx="1.86" ry="0.49"/>
					<ellipse class="st1" cx="35.02" cy="56.89" rx="1.86" ry="0.49"/>
				</g>
				<g>
					<rect x="33.16" y="53.75" class="st1" width="3.72" height="1.57"/>
					<ellipse class="st20" cx="35.02" cy="53.82" rx="1.86" ry="0.49"/>
					<ellipse class="st1" cx="35.02" cy="55.3" rx="1.86" ry="0.49"/>
				</g>
				<g>
					<ellipse class="st67" cx="35.07" cy="53.84" rx="0.65" ry="0.07"/>
					<rect x="34.42" y="44.04" class="st67" width="1.29" height="9.8"/>
				</g>
			</g>
			<path class="st0" d="M35.71,44.03c0,0.09-0.29,0.17-0.64,0.17s-0.65-0.07-0.65-0.17s0.29-0.17,0.65-0.17S35.71,43.94,35.71,44.03
				z"/>
		</g>
	</g>
</g>
</svg>
