<?xml version="1.0" encoding="utf-8"?>
<!-- Generator: Adobe Illustrator 26.3.1, SVG Export Plug-In . SVG Version: 6.00 Build 0)  -->
<svg version="1.1" id="Layer_1" xmlns="http://www.w3.org/2000/svg" xmlns:xlink="http://www.w3.org/1999/xlink" x="0px" y="0px"
	 viewBox="0 0 120 120" style="enable-background:new 0 0 120 120;" xml:space="preserve">
<style type="text/css">
	.st0{fill:#939598;}
	.st1{fill:#BCBEC0;}
	.st2{fill:#58595B;}
	.st3{fill:none;stroke:#58595B;stroke-miterlimit:10;}
	.st4{fill:#FFCB05;}
	.st5{fill:#FFFFFF;}
	.st6{fill:none;stroke:#58595B;stroke-width:1.4;stroke-miterlimit:10;}
	.st7{fill:#E31F26;}
	.st8{fill:#58595B;stroke:#FFFFFF;stroke-width:0.2967;stroke-miterlimit:10;}
	.st9{fill:#FFFFFF;stroke:#BBBDBF;stroke-width:1.0296;stroke-miterlimit:10;}
	.st10{fill:#BBBDBF;}
	.st11{fill:#FFFFFF;stroke:#BBBDBF;stroke-width:2.2652;stroke-linecap:round;stroke-linejoin:round;stroke-miterlimit:10;}
	.st12{fill:#FFFFFF;stroke:#BCBEC0;stroke-width:2.2652;stroke-linecap:round;stroke-linejoin:round;stroke-miterlimit:10;}
	.st13{fill:#F37021;}
	.st14{fill:#D1D3D4;}
	.st15{fill:#FFFFFF;stroke:#D1D3D4;stroke-width:1.7422;stroke-miterlimit:10;}
	.st16{fill:none;}
	.st17{fill:none;stroke:#58595B;stroke-width:0.0865;stroke-linecap:round;stroke-linejoin:round;stroke-miterlimit:10;}
	.st18{fill:none;stroke:#58595B;stroke-width:0.3701;stroke-miterlimit:10;}
	.st19{fill:#E41F28;}
	.st20{fill:#E6E7E8;}
	.st21{fill:#A7A9AC;}
	.st22{fill:#FFFFFF;stroke:#58595B;stroke-width:0.0945;stroke-linecap:round;stroke-linejoin:round;stroke-miterlimit:10;}
	.st23{fill:#C51A20;}
	.st24{fill:#B34215;}
	.st25{fill:#E45620;}
	.st26{fill:#C6401B;}
	.st27{fill:#960C10;}
	.st28{fill:#414042;}
	.st29{fill:none;stroke:#58595B;stroke-width:0.3617;stroke-miterlimit:10;}
	.st30{fill:#FFFFFF;stroke:#58595B;stroke-width:0.0452;stroke-miterlimit:10;}
	.st31{fill:#378C3B;}
	.st32{fill:#00ABE1;}
	.st33{fill:#150958;}
	.st34{fill:#BC3D19;}
	.st35{fill:none;stroke:#58595B;stroke-width:0.4122;stroke-miterlimit:10;}
	.st36{fill:none;stroke:#C2952D;stroke-width:0.1333;stroke-miterlimit:10;}
	.st37{fill:#2E6733;}
	.st38{fill:#C2952D;}
	.st39{fill:#B34526;}
	.st40{fill:none;stroke:#C2952D;stroke-width:0.1521;stroke-miterlimit:10;}
	.st41{fill:none;stroke:#58595B;stroke-width:0.1297;stroke-linecap:round;stroke-linejoin:round;stroke-miterlimit:10;}
	.st42{fill:none;stroke:#58595B;stroke-width:0.5546;stroke-miterlimit:10;}
	.st43{fill:#FFFFFF;stroke:#58595B;stroke-width:0.1415;stroke-linecap:round;stroke-linejoin:round;stroke-miterlimit:10;}
	.st44{fill:none;stroke:#58595B;stroke-width:0.5421;stroke-miterlimit:10;}
	.st45{fill:#FFFFFF;stroke:#58595B;stroke-width:0.0678;stroke-miterlimit:10;}
	.st46{fill:none;stroke:#58595B;stroke-width:0.4665;stroke-miterlimit:10;}
	.st47{fill:none;stroke:#C2952D;stroke-width:0.1508;stroke-miterlimit:10;}
	.st48{fill:none;stroke:#C2952D;stroke-width:0.1722;stroke-miterlimit:10;}
	.st49{fill:none;stroke:#BCBEC0;stroke-miterlimit:10;}
	.st50{font-family:'InkFree';}
	.st51{font-size:12.4756px;}
	.st52{fill:none;stroke:#58595B;stroke-width:1.3338;stroke-miterlimit:10;}
	.st53{fill:none;stroke:#58595B;stroke-width:1.3338;stroke-linejoin:round;stroke-miterlimit:10;}
	.st54{fill:none;stroke:#58595B;stroke-width:1.5665;stroke-miterlimit:10;}
	.st55{fill:#FFFFFF;stroke:#58595B;stroke-width:0.8701;stroke-miterlimit:10;}
	.st56{fill:#FFFFFF;stroke:#58595B;stroke-width:1.5455;stroke-linecap:round;stroke-miterlimit:10;}
	.st57{fill:none;stroke:#C6401B;stroke-width:0.54;stroke-miterlimit:10;}
	.st58{clip-path:url(#SVGID_00000182492850581840987200000006314386127620272014_);}
	.st59{fill:none;stroke:#C6401B;stroke-width:1.1204;stroke-miterlimit:10;}
	.st60{fill:none;stroke:#C6401B;stroke-width:0.9165;stroke-miterlimit:10;}
	.st61{fill:#4A9549;}
	.st62{clip-path:url(#SVGID_00000071530685911880543590000015978458890197224876_);}
	.st63{fill:none;stroke:#58595B;stroke-width:1.4;stroke-linejoin:round;stroke-miterlimit:10;}
	.st64{fill:none;stroke:#58595B;stroke-width:1.0174;stroke-linecap:round;stroke-linejoin:bevel;stroke-miterlimit:10;}
	.st65{fill:none;stroke:#58595B;stroke-width:1.0174;stroke-miterlimit:10;}
	.st66{fill:none;stroke:#58595B;stroke-width:1.1836;stroke-miterlimit:10;}
	.st67{fill:none;stroke:#58595B;stroke-width:1.3856;stroke-miterlimit:10;}
	.st68{fill:none;stroke:#58595B;stroke-width:0.919;stroke-miterlimit:10;}
	.st69{fill:none;stroke:#58595B;stroke-width:0.919;stroke-linejoin:round;stroke-miterlimit:10;}
	.st70{fill:#808285;}
</style>
<g>
	<g>
		<g>
			<g>
				<polyline class="st6" points="30.66,55.41 30.39,84.17 26.75,119.51 				"/>
				<path class="st6" d="M30.31,83.19l5.26,16.31c0.3,0.92,0.48,1.88,0.54,2.85l1.04,17.19"/>
				<path class="st6" d="M30.29,59.64c-1.21,0.3-9.27,6.55-12.35,8.97c-0.67,0.53-0.81,1.49-0.32,2.19l8.52,12.09"/>
				<path class="st6" d="M30.74,59.48l16.15,1.26c0.6,0.05,1.15-0.32,1.35-0.88l5.94-15.96"/>
				<path class="st2" d="M26.57,86.6c1.74,1.39,2.43,0.14,3.37-1.05s1.77-1.87,0.03-3.26s-3.91-1.54-4.85-0.35
					C24.18,83.13,24.83,85.21,26.57,86.6z"/>
				<path class="st49" d="M108.34,40.51h-30c-0.01,0-0.01,0-0.02,0l-14.92,7.04c-0.06,0.03-0.11-0.05-0.06-0.09l8.46-6.88
					c0.03-0.03,0.01-0.08-0.03-0.08h-6.26c-0.02,0-0.04-0.02-0.04-0.04V15.81c0-0.02,0.02-0.04,0.04-0.04h42.82
					c0.02,0,0.04,0.02,0.04,0.04v24.66C108.39,40.49,108.37,40.51,108.34,40.51z"/>
				<text transform="matrix(1 0 0 1 76.1059 31.7057)" class="st1 st50 st51">Hey!</text>
				<circle class="st4" cx="30.42" cy="42.84" r="13.58"/>
			</g>
		</g>
		<path class="st2" d="M56.8,41.31c0.1-2.27-1.07-4.44-2.62-4.5c-1.54-0.06-2.88,2.02-2.97,4.29c-0.1,2.27,1.07,4.15,2.62,4.21
			C55.37,45.36,56.7,43.58,56.8,41.31z"/>
	</g>
	<path class="st2" d="M42.71,115.18c-3.47,0.02-6.27,1.99-6.25,4.4l11.37-0.08c0.69,0,1.2-0.45,1.06-0.91
		C48.27,116.62,45.73,115.16,42.71,115.18z"/>
	<path class="st2" d="M21.19,115.18c3.47,0.02,6.27,1.99,6.25,4.4l-11.37-0.08c-0.69,0-1.2-0.45-1.06-0.91
		C15.63,116.62,18.17,115.16,21.19,115.18z"/>
</g>
</svg>
